<?xml version="1.0" encoding="utf-8"?>

<!DOCTYPE svg PUBLIC "-//W3C//DTD SVG 1.1//EN" "http://www.w3.org/Graphics/SVG/1.1/DTD/svg11.dtd">
<svg version="1.1" id="Layer_1" xmlns="http://www.w3.org/2000/svg" xmlns:xlink="http://www.w3.org/1999/xlink" x="0px" y="0px"
	 viewBox="0 0 1363.878 1664.765" enable-background="new 0 0 1363.878 1664.765" xml:space="preserve">
<g>
	<title>Layer 1</title>
	<g id="Layer_1_1_">
		<g id="svg_1">
			<path d="M678.444,1632.382h6.994l35.916-1466.865h-78.826L678.444,1632.382z"/>
			<path fill="#FFFFFF" d="M685.438,1634.016h-6.994l-1.632-1.593L640.896,165.557l1.632-1.672h78.826l1.632,1.672L687.07,1632.423
				L685.438,1634.016z M680.038,1630.75h3.808l35.836-1463.6h-75.48L680.038,1630.75z"/>
		</g>
		<g id="svg_2">
			<g id="svg_3">
				<path d="M595.657,356.216c-70.886,8.946-135.143-74.02-102.427-93.513c3.167-7.347,2.253-11.167-5.322-9.763
					c-77.057,10.612-125.772-53.417-117.283-120.189c0.555-4.473-2.517-5.387-4.996-5.551c-2.873-0.196-5.159,3.232-6.596,5.551
					c-34.496,55.626-194.931,149.195-237.997,156.627c-25.076,4.31-64.486,8.914-78.787-11.526
					c-7.25-12.096,22.368-4.799,141.608-80.256c75.62-47.867,148.595-110.753,218.763-146.277
					c30.855-15.607,126.523-29.876,159.893,15.999c56.846,78.167-22.951,112.222-25.236,126.033
					c-4.281,25.908,20.863,80.061,99.096,55.311l2.122,95.113C625.479,350.977,610.584,355.281,595.657,356.216L595.657,356.216z"/>
				<path fill="#FFFFFF" d="M491.932,261.585c2.857-6.889,1.298-7.971-3.726-7.039c-78.099,10.755-127.839-54.053-119.2-122
					c0.292-2.356-0.501-3.519-3.483-3.716c-2.075-0.12-4.188,3.309-5.101,4.782c-34.658,55.887-195.502,149.85-239.107,157.376
					c-71.785,12.335-83.246-12.368-81.75-17.55c0.664-2.3,3.07-3.094,5.396-4.364c47.44-23.823,51.754-18.264,138.024-72.857
					C258.828,148.21,331.384,85.556,401.883,49.864c31.813-16.091,127.957-30.237,161.95,16.495
					c57.493,79.057-22.89,114.831-24.945,127.26c-4.003,24.221,19.48,78.03,96.993,53.488l2.125,1.52l2.122,95.113l-0.842,1.465
					C546.256,396.671,452.919,286.113,491.932,261.585z M494.73,263.35l-0.664,0.756c-35.445,21.118,53.559,128.142,142.775,78.72
					l-2.051-91.949c-73.308,23.195-104.134-27.47-99.124-57.791c2.537-15.326,81.388-47.993,25.526-124.807
					c-18.031-24.789-53.228-30.205-79.58-30.383c-65.824-0.465-97.22,19.509-207.201,98.991
					C123.022,246.294,99.966,244.912,45.157,272.653c-2.674,1.354-3.196,1.519-1.536,4.313
					c15.098,21.468,61.79,13.444,77.141,10.806c42.593-7.352,202.446-100.342,236.886-155.879c6.614-10.675,15.49-6.12,14.599,1.062
					c-8.41,66.151,39.876,128.771,115.44,118.37C495.247,249.919,499.018,253.404,494.73,263.35z"/>
			</g>
			<g id="svg_4">
				<path d="M340.456,176.077c2.286-2.579,12.473-7.477,13.06-3.265c1.567,11.101,7.477,26.219,14.007,38.496
					c2.22,4.147-2.645,9.436-5.714,13.06c-43.749,36.961-95.374,72.126-139.975,91.913c-33.856,11.799-86.326,8.214-73.266-9.665
					C217.822,278.05,270.909,237.856,340.456,176.077z"/>
				<path fill="#FFFFFF" d="M147.25,305.653l0.696-0.546c69.929-28.845,123.122-69.579,191.359-130.191
					c3.085-3.348,14.925-8.801,15.828-2.329c1.417,10.034,6.717,24.579,13.832,37.955c2.695,5.034-2.288,10.766-6.102,15.074
					c-60.072,50.751-117.58,83.167-140.492,92.207C186.721,330.247,132.518,325.817,147.25,305.653z M149.625,307.946
					c-11.104,15.961,43.628,16.552,71.608,6.815c44.46-19.735,151.499-90.267,144.851-102.683
					c-12.388-23.29-14.216-39.164-14.216-39.164c-1-0.848-7.44,1.485-10.329,4.383C273.153,238.046,219.787,278.927,149.625,307.946
					z"/>
			</g>
			<g id="svg_5">
				<path d="M368.34,234.069c2.024-2.155,5.551-4.702,9.567-3.037c9.407,10.938,14.598,16.13,25.634,20.995
					c3.526,1.535,8,6.4,2.119,11.428c-61.776,52.372-108.565,96.941-169.881,80.159c-1.962-0.522-1.502-6.693,0.225-7.706
					C272.382,314.945,314.237,291.89,368.34,234.069L368.34,234.069z"/>
				<path fill="#FFFFFF" d="M235.349,345.188c-3.644-0.97-2.945-9.062-0.168-10.689c36.998-21.296,78.278-44.165,131.968-101.545
					c2.162-2.703,6.887-5.296,11.384-3.429c3.654,2.646,9.354,13.817,25.667,21.009c5.264,2.291,8.971,8.647,2.521,14.162
					C344.395,317.535,297.528,362.208,235.349,345.188z M236.385,342.086c60.38,16.41,106.704-27.73,168.22-79.877
					c3.992-3.414,2.165-6.997-1.715-8.686c-11.257-4.963-16.614-10.274-25.95-21.113c-2.995-1.023-5.668,0.921-7.409,2.775
					c-53.926,57.632-95.323,80.619-132.71,102.136C236.163,337.931,235.856,341.19,236.385,342.086z M236.2,342.035
					c0.003,0.001,0.005,0.001,0.008,0.002C236.205,342.037,236.203,342.036,236.2,342.035z"/>
			</g>
			<g id="svg_6">
				<path d="M418.558,265.805c9.632-6.498,1.6,1.469,43.426,4.571c24.832,1.795-88.602,121.262-128.743,83.032
					c-2.71-2.743,17.86-17.73,36.863-34.969C388.13,302.045,413.206,274.553,418.558,265.805z"/>
				<path fill="#FFFFFF" d="M334.847,358.584c-1.994-1-1.968-3.024-2.763-4.024c-3.097-3.121,3.618-8.774,18.823-21.64
					c110.506-93.51,31.92-70.051,111.197-64.171c15.495,1.118-18.39,56.459-81.264,86.815
					C367.086,362.239,348.587,365.621,334.847,358.584z M334.692,352.587c19.479,25.614,92.469-21.205,123.291-65.929
					c9.633-25.276,6.473-7.506-30.885-20.826c-3.609-1.287-3.7-1.319-7.337,1.131c-4.791,7.597-28.955,36.477-66.744,68.448
					C344.83,342.339,335.588,350.159,334.692,352.587z"/>
			</g>
			<g id="svg_7">
				<path d="M768.222,356.216c70.886,8.946,135.143-74.02,102.427-93.513c-3.17-7.347-2.253-11.167,5.322-9.763
					c77.057,10.612,125.772-53.417,117.283-120.189c-0.555-4.473,2.514-5.387,4.992-5.551c2.877-0.196,5.159,3.232,6.599,5.551
					c34.272,55.266,194.61,149.139,237.994,156.627c25.079,4.31,64.486,8.914,78.787-11.526
					c7.263-12.105-22.262-4.734-141.605-80.256c-75.62-47.867-148.599-110.753-218.763-146.277
					c-30.855-15.607-126.523-29.876-159.896,15.999c-56.846,78.167,22.954,112.222,25.239,126.033
					c4.281,25.908-20.866,80.061-99.099,55.311l-2.119,95.113C738.73,351.167,753.703,355.307,768.222,356.216L768.222,356.216z"/>
				<path fill="#FFFFFF" d="M724.592,345.204l-0.841-1.464l2.119-95.113l2.124-1.52c77.094,24.39,101.05-28.952,96.997-53.488
					c-2.07-12.499-82.474-48.161-24.949-127.259c33.998-46.732,130.141-32.588,161.953-16.496
					c70.474,35.681,143.133,98.396,218.898,146.354c86.264,54.589,90.601,49.045,137.974,72.831
					c2.394,1.302,4.784,2.096,5.445,4.391c1.175,4.075-7.324,30.341-81.751,17.55c-43.121-7.444-204.127-100.975-239.105-157.376
					c-0.913-1.472-3.012-4.925-5.101-4.782c-2.959,0.195-3.778,1.333-3.482,3.721c8.653,68.062-41.242,132.733-119.126,122.006
					c-5.097-0.942-6.67,0.113-3.8,7.026C911.036,286.156,817.542,396.6,724.592,345.204z M727.038,342.826
					c89.424,49.508,178.092-57.679,142.775-78.72l-0.663-0.755c-3.736-8.657-1.726-13.654,7.118-12.015
					c75.447,10.383,123.774-52.234,115.366-118.377c-0.52-4.188,1.569-7.062,6.504-7.386c4.05-0.275,6.766,4.18,8.093,6.318
					c20.829,33.587,54.646,55.809,87.351,77.299c30.903,20.311,110.965,71.922,149.534,78.581
					c26.642,4.579,63.613,8.437,77.14-10.806c1.937-3.254,0.879-2.958-2.902-5.025c-47.161-23.674-51.724-18.237-138.205-72.963
					c-75.851-48.012-148.464-110.676-218.627-146.2C930.174,37.427,835.426,23.27,802.683,68.28
					c-55.841,76.783,22.996,109.491,25.529,124.806c4.784,28.944-24.346,81.433-99.126,57.791L727.038,342.826z"/>
			</g>
			<g id="svg_8">
				<path d="M1023.423,176.077c-2.286-2.579-12.473-7.477-13.06-3.265c-1.567,11.101-7.477,26.219-14.007,38.496
					c-2.224,4.147,2.645,9.436,5.714,13.06c43.749,36.961,95.374,72.126,139.972,91.913c33.618,11.714,86.367,8.306,73.269-9.665
					C1146.061,278.05,1092.97,237.856,1023.423,176.077z"/>
				<path fill="#FFFFFF" d="M1141.504,317.822c-16.396-6.469-73.705-35.787-140.489-92.207
					c-16.647-16.647,2.666-17.152,7.731-53.031c0.903-6.478,12.765-0.991,15.827,2.332c68.235,60.61,121.428,101.344,191.36,130.191
					l0.696,0.548C1231.784,326.458,1174.515,329.324,1141.504,317.822z M1142.642,314.761c27.951,9.724,82.801,9.321,71.611-6.815
					c-75.299-31.146-156.321-95.055-192.052-130.786c-2.172-2.452-9.151-5.112-10.198-4.236c1,0.75-4.583,21.056-14.207,39.15
					c-1.692,3.155,2.885,8.146,5.429,11.133C1050.287,262.953,1101.093,296.317,1142.642,314.761z"/>
			</g>
			<g id="svg_9">
				<path d="M995.539,234.069c-2.024-2.155-5.551-4.702-9.57-3.037c-9.404,10.938-14.595,16.13-25.631,20.995
					c-3.526,1.535-8,6.4-2.122,11.428c61.776,52.372,108.565,96.941,169.884,80.159c1.959-0.522,1.502-6.693-0.229-7.706
					C1091.501,314.945,1049.639,291.89,995.539,234.069L995.539,234.069z"/>
				<path fill="#FFFFFF" d="M968.705,274.526c-11.863-10.115-15.646-12.158-14.901-17.133c1.415-9.445,8.834-1.726,30.928-27.425
					c2.568-1.859,7.583-1.719,11.999,2.983c18.83,23.537,62.699,61.699,127.89,99.202c3.354,1.93,7.201,2.961,6.311,9.556
					c-0.347,2.563-1.659,3.281-2.41,3.482C1070.253,361.135,1025.447,322.92,968.705,274.526z M986.936,232.411
					c-9.331,10.838-14.687,16.148-25.94,21.109c-10.137,4.417,1.375,11.312,9.827,18.521
					c55.945,47.714,100.144,85.413,156.67,70.044c0.528-0.897,0.22-4.157-0.489-4.799c-37.85-21.74-79.071-44.831-132.656-102.103
					C992.606,233.331,989.933,231.389,986.936,232.411z M1127.668,342.038c-0.003,0-0.005,0.001-0.007,0.002
					C1127.664,342.039,1127.664,342.039,1127.668,342.038z"/>
			</g>
			<g id="svg_10">
				<path d="M945.318,265.805c-9.629-6.498-1.597,1.469-43.426,4.571c-24.837,1.796,88.613,121.252,128.747,83.032
					c2.707-2.743-17.863-17.73-36.863-34.969C975.753,302.045,950.676,274.553,945.318,265.805L945.318,265.805z"/>
				<path fill="#FFFFFF" d="M901.775,268.748c79.168-5.87,0.907-29.145,111.206,64.18c15.184,12.849,21.899,18.502,18.82,21.627
					c-0.815,1-0.755,3.019-2.786,4.036C978.669,384.379,873.71,270.777,901.775,268.748z M1029.189,352.592
					c-1.38-3.762-21.118-18.977-36.51-32.944c-17.352-15.782-42.507-43.092-48.563-52.684c-8.122-5.477-0.888,1.984-42.104,5.041
					c-2.329,0.168,1.682,9.353,2.621,11.576C917.145,313.19,1006.456,382.558,1029.189,352.592z"/>
			</g>
		</g>
		<g id="svg_11">
			<path d="M681.922,32.383c33.174,0,60.111,26.937,60.111,60.111s-26.937,60.078-60.111,60.078
				c-33.174,0-60.075-26.905-60.075-60.078S648.748,32.382,681.922,32.383z"/>
			<path fill="#FFFFFF" d="M681.922,154.203c-34.026,0-61.708-27.683-61.708-61.71c0-34.045,27.682-61.743,61.708-61.743
				c34.045,0,61.744,27.698,61.744,61.743C743.665,126.52,715.967,154.203,681.922,154.203z M681.922,34.015
				c-32.226,0-58.443,26.233-58.443,58.478c0,32.227,26.217,58.446,58.443,58.446c32.245,0,58.478-26.219,58.478-58.446
				C740.4,60.248,714.166,34.015,681.922,34.015z"/>
		</g>
		<g id="svg_12">
			<path d="M697.888,67.189c-2.873-4.832,1.208-13.518,10.22-10.612c34.806,15.803,17.632,76.632-20.831,74.934
				c-5.91,0.163-7.804-5.583-3.396-8.685C700.696,111.398,714.834,94.616,697.888,67.189z"/>
			<path d="M687.241,132.327c-6.684,0.177-8.862-6.627-3.83-10.168c24.391-16.577,25.914-32.879,13.776-54.553
				c-3.275-5.507,1.463-14.935,11.172-11.806C744.291,72.104,726.371,134.045,687.241,132.327z M724.843,98.611
				c7.257-30.283-18.072-48.652-25.5-39.334c-7.812,9.799,29.315,34.103-15.004,64.225
				C670.587,133.181,715.055,139.465,724.843,98.611z"/>
		</g>
		<g id="svg_13">
			<path d="M804.742,414.205c-19.297-1.665-48.291-1.796-65.074,13.322c-15.901,14.334,25.661,44.275,47.475,46.43
				c29.219,2.873,44.598-11.167,49.826-19.329c1.796-2.743,5.028-1.633,6.171,1.175c13.256,98.972-87.593,121.534-161.182,142.362
				c18.144,5.135,53.652,14.718,94.225,40.827C961.124,543.398,887.059,421.327,804.742,414.205z"/>
			<path fill="#FFFFFF" d="M776.932,640.442l-1.634-0.077c-40.018-25.753-75.237-35.38-93.785-40.629l0-3.142
				c73.106-20.696,172.922-43.008,160.04-140.35c-0.59-1.261-2.126-2.393-3.217-0.722c-7.896,12.327-25.911,22.561-51.353,20.06
				c-22.965-2.268-65.98-33.43-48.407-49.267c23.173-20.874,94.352-24.756,132.352,20.586
				C910.897,494.599,906.254,573.597,776.932,640.442z M687.945,598.176c27.343,7.882,56.391,18.544,88.324,38.932
				c182.723-94.872,108.559-214.334,28.333-221.276c-40.957-3.538-71.025,8.266-66.208,22.925
				c4.715,14.344,32.74,31.978,48.909,33.575c32.591,3.203,45.944-14.919,48.291-18.585c2.754-4.205,8.092-2.173,9.164,1.839
				C857.353,549.626,770.945,574.936,687.945,598.176z"/>
		</g>
		<g id="svg_14">
			<path d="M619.969,1378.523c-34.904,35.622-32.161,88.55,5.877,126.425c-7.024-46.555-26.206-79.404,56.104-125.612
				c-12.342-6.932-25.092-13.495-39.041-22.755C634.098,1364.803,626.114,1372.261,619.969,1378.523z"/>
			<path fill="#FFFFFF" d="M624.695,1506.105c-38.721-38.555-41.199-92.691-5.891-128.725l0-0.001
				c6.273-6.393,14.394-13.97,22.992-21.991l2.017-0.167c13.896,9.225,26.621,15.773,38.938,22.69v2.848
				c-81.29,45.635-62.346,77.169-55.29,123.945L624.695,1506.105z M621.136,1379.666c-32.869,33.545-31.651,83.461,2.267,120.383
				c-7.299-42.767-22.34-76.576,55.215-120.705c-11.347-6.307-22.927-12.408-35.535-20.69
				C634.862,1366.324,627.129,1373.557,621.136,1379.666L621.136,1379.666z"/>
		</g>
		<g id="svg_15">
			<path d="M752.696,907.462c-36.195-23.014-77.59-41.761-108.434-63.278c-60.385-42.103-73.952-119.662,37.693-163.987
				c-28.413-11.278-62.171-24.645-94.225-41.212c-115.21,74.112-76.573,175.134-41.682,215.253
				c45.729,52.487,135.59,88.089,180.299,133.873c42.74,43.785,7.51,92.892-10.154,106.149
				c-10.971,8.225-22.542,15.604-34.238,22.836c24.632,15.219,49.803,29.768,71.215,49.917
				c28.557-22.183,54.374-50.456,68.649-88.227C854.737,991.66,810.391,944.149,752.696,907.462L752.696,907.462z"/>
			<path fill="#FFFFFF" d="M754.171,1168.302l-2.121-0.101c-21.286-20.029-46.809-34.797-70.954-49.717l-0.001-2.777
				c27.949-17.282,60.609-36.094,63.761-77.013c7.776-100.999-258.692-127.166-234.656-295.69
				c5.844-40.976,31.632-76.435,76.647-105.392l1.633-0.077c30.687,15.861,62.135,28.491,94.078,41.145v3.035
				c-38.755,15.419-77.299,38.134-82.107,79.883c-8.278,71.884,82.694,99.71,153.123,144.487l0,0
				c69.638,44.283,99.522,94.543,69.773,173.279C810.671,1112.897,788.044,1141.989,754.171,1168.302z M685.059,1117.093
				c23.299,14.34,47.571,28.634,68.205,47.774c32.777-25.707,54.709-54.065,67.027-86.658
				c33.778-89.401-15.657-135.786-68.472-169.368l0.001-0.001c-36.127-22.969-77.568-41.742-108.493-63.316
				c-65.079-45.376-69.482-124.072,34.206-165.325c-27.94-11.094-59.252-23.652-89.712-39.329
				c-43.693,28.325-68.719,62.839-74.389,102.595c-19.067,133.681,145.22,172.991,214.083,243.505
				c41.726,42.745,11.032,92.554-10.344,108.596C706.725,1103.397,695.627,1110.527,685.059,1117.093z"/>
		</g>
		<g id="svg_16">
			<path d="M776.179,638.988c-40.272-25.9-75.532-35.533-94.225-40.827c-73.586-20.828-174.435-43.39-161.179-142.362
				c1.143-2.808,4.375-3.918,6.138-1.175c5.224,8.163,20.603,22.203,49.858,19.329c21.814-2.155,63.376-32.096,47.475-46.43
				c-16.783-15.117-45.777-14.987-65.074-13.322c-55.474,4.8-90.28,54.331-86.428,97.594
				c7.887,88.241,127.611,136.017,209.209,168.405c110.247,43.721,99.173,121.123,37.696,163.987
				c-11.402,7.954-24.23,15.519-37.696,23.058c23.039,12.897,47.932,25.716,70.742,40.22c24.763-16.309,48.027-33.572,65.136-53.221
				C852.752,814.122,891.395,713.1,776.179,638.988L776.179,638.988z"/>
			<path fill="#FFFFFF" d="M751.821,908.844c-22.732-14.455-47.669-27.3-70.664-40.173v-2.85
				c35.662-19.968,88.499-50.439,82.305-104.22c-7.736-67.164-90.216-76.573-176.482-121.163
				c-129.333-66.842-134-145.839-93.985-193.555c38.454-45.855,109.753-40.923,132.344-20.573
				c17.541,15.813-25.383,46.993-48.407,49.267c-25.406,2.495-43.486-7.719-51.394-20.074c-1.04-1.619-2.568-0.564-3.175,0.736
				c-12.215,92.291,76.877,117.139,148.474,137.11c25.891,7.224,62.907,16.406,106.224,44.265l0,0
				c45.023,28.96,70.812,64.423,76.648,105.404c6.55,45.979-14.57,89.23-34.646,112.297c-18.804,21.595-44.865,39.941-65.469,53.513
				L751.821,908.844z M685.296,867.241c21.834,12.154,45.587,24.496,67.383,38.28c39.219-25.898,110.185-75.092,97.799-162.042
				c-5.697-40-30.992-74.694-75.182-103.118l0,0c-40.451-26.014-75.883-35.558-93.787-40.629
				c-73.547-20.814-175.806-43.702-162.353-144.15c1.067-4.012,6.427-6.044,9.129-1.841c2.348,3.668,15.714,21.794,48.326,18.587
				c16.169-1.597,44.193-19.23,48.908-33.574c5.012-15.25-26.575-26.346-66.207-22.926c-53.864,4.66-88.781,52.711-84.942,95.823
				c8.075,90.351,135.96,138.177,216.596,170.377c95.346,38.033,96.635,116.771,29.616,163.499
				C708.914,853.668,695.876,861.28,685.296,867.241z"/>
		</g>
		<g id="svg_17">
			<path d="M743.942,1378.523c-63.083-64.255-151.293-120.04-61.985-167.233c-22.33-11.885-47.693-26.013-71.212-44.281
				c-53.211,50.046-50.19,113.369-14.027,150.711c49.56,51.157,82.446,54.231,117.871,83.228
				c43.753,35.717,29.353,65.041,23.476,103.994C776.104,1467.073,778.85,1414.146,743.942,1378.523z"/>
			<path fill="#FFFFFF" d="M739.216,1506.099l-2.766-1.4c7.992-52.941,25.81-79.323-63.715-128.609
				c-23.232-12.797-46.997-26.067-77.189-57.233c-36.653-37.848-40.229-101.955,14.081-153.036l2.12-0.1
				c22.836,17.737,47.608,31.691,70.977,44.129l-0.003,2.885c-85.337,45.322-5,97.259,62.388,164.646
				C780.419,1413.414,777.941,1467.548,739.216,1506.099z M610.853,1169.156c-51.751,49.323-48.182,111.06-12.961,147.429
				c29.866,30.828,53.323,43.923,76.419,56.645c85.177,46.91,75.395,72.963,66.198,126.814
				c33.921-36.919,35.141-86.833,2.269-120.378c-58.058-59.13-152.792-121.242-64.293-168.378
				C656.165,1199.348,632.687,1185.955,610.853,1169.156z"/>
		</g>
		<g id="svg_18">
			<path d="M767.193,1181.732c-32.975-39.065-80.514-58.28-119.503-87.472c-17.632-13.256-52.895-62.364-10.125-106.149
				c12.097-12.391,27.489-24.015,44.389-35.43c-22.271-15.036-47.178-29.7-70.745-45.219
				c-57.691,36.683-102.035,84.197-69.113,171.32c58.047,153.59,260.716,114.886,139.858,240.038
				c12.94,13.397,26.794,26.323,39.044,37.754c13.926-9.24,29.053-21.168,46.192-38.848
				C797.131,1286.806,807.713,1229.729,767.193,1181.732L767.193,1181.732z"/>
			<path fill="#FFFFFF" d="M721.901,1357.935l-2.016-0.167c-12.247-11.426-26.128-24.377-39.105-37.813v-2.268
				c119.418-123.665-81.599-83.248-140.21-238.327c-29.715-78.637,0.034-128.938,69.764-173.276l1.774,0.015
				c23.469,15.454,48.514,30.21,70.761,45.229l0.001,2.706c-19.535,13.194-33.559,24.385-44.136,35.218
				c-40.247,41.201-9.882,88.801,9.938,103.704c38.84,29.08,86.626,48.454,119.77,87.724c40.892,48.438,30.913,106.18-0.078,138.184
				C753.081,1334.627,738.319,1347.042,721.901,1357.935z M684.224,1318.817c12.27,12.629,25.307,24.824,36.943,35.683
				c15.789-10.589,30.071-22.663,44.851-37.91c29.97-30.949,39.569-86.849-0.071-133.806l0,0
				c-54.979-65.12-144.709-72.454-150.162-143.879c-2.829-37.049,25.831-60.711,63.253-86.219
				c-21.421-14.339-45.266-28.456-67.842-43.279c-52.475,33.536-101.166,79.898-67.571,168.799
				c51.076,135.144,230.969,126.225,164.622,213.049C701.883,1299.589,694.016,1308.616,684.224,1318.817z"/>
		</g>
	</g>
</g>
</svg>
