<?xml version="1.0" encoding="UTF-8" standalone="no"?>
<svg
   xmlns:dc="http://purl.org/dc/elements/1.1/"
   xmlns:cc="http://creativecommons.org/ns#"
   xmlns:rdf="http://www.w3.org/1999/02/22-rdf-syntax-ns#"
   xmlns:svg="http://www.w3.org/2000/svg"
   xmlns="http://www.w3.org/2000/svg"
   xmlns:sodipodi="http://sodipodi.sourceforge.net/DTD/sodipodi-0.dtd"
   xmlns:inkscape="http://www.inkscape.org/namespaces/inkscape"
   id="svg6313"
   height="247.73mm"
   width="141.91mm"
   version="1.1"
   viewBox="0 0 502.84251 877.78864"
   sodipodi:docname="hourglass.svg"
   inkscape:version="1.0.2 (e86c870879, 2021-01-15)">
  <metadata
     id="metadata9">
    <rdf:RDF>
      <cc:Work
         rdf:about="">
        <dc:format>image/svg+xml</dc:format>
        <dc:type
           rdf:resource="http://purl.org/dc/dcmitype/StillImage" />
      </cc:Work>
    </rdf:RDF>
  </metadata>
  <defs
     id="defs7" />
  <sodipodi:namedview
     pagecolor="#ffffff"
     bordercolor="#666666"
     borderopacity="1"
     objecttolerance="10"
     gridtolerance="10"
     guidetolerance="10"
     inkscape:pageopacity="0"
     inkscape:pageshadow="2"
     inkscape:window-width="1366"
     inkscape:window-height="689"
     id="namedview5"
     showgrid="false"
     inkscape:zoom="0.56392041"
     inkscape:cx="255.41921"
     inkscape:cy="863.72113"
     inkscape:window-x="0"
     inkscape:window-y="27"
     inkscape:window-maximized="1"
     inkscape:current-layer="svg6313" />
  <g
     id="layer1"
     transform="translate(-97.15 -70.611)">
    <path
       id="path6257"
       d="m348.37 687.4c-2.1098 9.7643-14.679 18.452-32.499 24.207-36.373 12.435-76.619 23.773-102.79 40.848-21.333 14.601-25.313 32.611-24.651 49.539 0.42488 5.5525 1.5558 10.979 3.3052 16.468h313.66c7.2824-23.627 4.9174-49.818-27.397-70.09-32.098-18.874-83.95-28.649-117.96-46.634-6.2899-4.2911-10.194-9.4274-11.67-14.34zm-132.78-334.99c2.2877 3.4521 4.726 6.8262 7.3648 10.091 31.041 38.451 77.294 61.565 111.28 97.286 7.947 10.734 12.67 23.668 14.282 36.881 2.9195-24.914 18.226-47.143 39.455-60.155 32.676-25.333 70.084-49.754 93.373-84.103h-265.75zm114.89 114.17m206.61 389.33h-377.03l-1.4222-5.5579c-1.6202-6.3271-38.631-155.89 49.467-236.8 32.582-29.922 56.151-47.203 71.746-58.638 26.256-19.247 30.986-22.716 30.986-46.3 0-23.587-4.7298-27.055-30.986-46.301-15.597-11.435-39.164-28.713-71.746-58.637-88.097-80.906-51.087-230.47-49.467-236.8l1.4222-5.5596h377.03l1.4222 5.5596c1.6202 6.3255 38.631 155.89-49.465 236.8-32.585 29.924-56.154 47.202-71.749 58.637-26.256 19.245-30.986 22.713-30.986 46.301 0 23.584 4.7298 27.053 30.986 46.3 15.597 11.435 39.164 28.716 71.749 58.638 88.096 80.906 51.084 230.47 49.465 236.8l-1.4222 5.5579zm-365.37-14.782h353.72c5.697-27.507 26.081-150.14-46.385-216.69-31.981-29.369-54.239-45.686-70.491-57.602-26.942-19.751-37.025-27.142-37.025-58.219 0-31.078 10.083-38.469 37.025-58.222 16.252-11.915 38.509-28.232 70.491-57.602 72.561-66.638 52.106-189.19 46.39-216.69h-353.72c-5.6987 27.508-26.083 150.14 46.382 216.69 31.981 29.371 54.237 45.688 70.489 57.602 26.942 19.754 37.027 27.145 37.027 58.222 0 31.078-10.083 38.469-37.027 58.219-16.252 11.916-38.509 28.233-70.489 57.602-72.559 66.64-52.103 189.19-46.386 216.69zm428.28 67.841c0-21.775-17.651-39.423-39.423-39.423h-424c-21.772 0-39.423 17.648-39.423 39.423 0 21.77 17.651 39.423 39.423 39.423h424c21.772 0 39.423-17.652 39.423-39.423zm0-798.94c0-21.772-17.651-39.421-39.423-39.421h-424c-21.772 0-39.423 17.649-39.423 39.421s17.651 39.423 39.423 39.423h424c21.772 0 39.423-17.651 39.423-39.423z" />
  </g>
  <path
     style="fill:#999999;stroke-width:1.7733"
     d="M 34.679603,934.46974 C 14.355336,930.39778 1.4497904,914.93129 1.4363793,894.6298 1.4283716,882.50784 4.8404077,874.08515 13.238936,865.49494 25.624274,852.82691 3.3714823,853.8439 268.17638,853.8439 c 222.26761,0 238.88847,0.20779 244.08388,3.0515 26.06723,14.2679 30.82253,49.63737 9.13244,67.92615 -13.46539,11.35384 4.54164,10.5676 -248.78307,10.86256 -126.79094,0.14763 -233.859452,-0.39883 -237.930027,-1.21437 z"
     id="path11"
     transform="matrix(0.93752196,0,0,0.93752196,0,-0.00769344)" />
  <path
     style="fill:#999999;stroke-width:0.88665"
     d="m 64.381718,824.80612 c -7.713317,-36.14414 -10.00223,-81.01881 -5.91319,-115.92949 5.419514,-46.26975 20.580383,-84.09336 45.834902,-114.34973 12.84967,-15.39465 44.40678,-42.5663 84.51778,-72.77244 13.16676,-9.9154 26.0725,-20.14731 28.67945,-22.73756 8.22609,-8.17343 10.77648,-15.68801 10.77648,-31.75238 0,-15.72294 -2.78217,-24.16465 -10.49179,-31.83445 -2.27587,-2.26411 -15.11023,-12.3405 -28.52081,-22.39197 C 154.9941,387.35177 119.81952,357.57551 108.17282,344.39169 83.219719,316.1453 67.815736,282.59167 60.784681,241.16879 53.668512,199.24446 55.33701,149.57923 65.334632,105.73301 l 1.870072,-8.201516 H 268.17638 469.14806 l 1.87008,8.201516 c 9.97992,43.76858 11.65352,93.58569 4.54995,135.43578 -6.99928,41.23566 -22.26113,74.59412 -47.07895,102.90241 -11.56384,13.19021 -46.46586,42.75634 -81.40091,68.95617 -13.41058,10.05738 -26.24494,20.13859 -28.52081,22.4027 -7.70962,7.6698 -10.49179,16.11151 -10.49179,31.83445 0,15.77763 2.55266,23.52545 10.33582,31.37133 2.36165,2.38067 13.76975,11.43439 25.35132,20.11937 42.36688,31.77074 74.81752,59.63498 88.39534,75.90199 21.75715,26.06632 35.8348,57.48627 43.03195,96.0431 7.23711,38.77091 5.98387,90.98169 -3.21901,134.10581 l -0.89877,4.21158 H 268.17638 65.280489 Z m 394.159662,-9.53149 c 4.1157,-21.84011 6.95546,-59.32572 6.01162,-79.35517 -2.44138,-51.80938 -14.46499,-91.89048 -36.87959,-122.93948 -13.49299,-18.69068 -43.17244,-45.03821 -91.70695,-81.41159 -31.4691,-23.584 -37.52514,-30.28501 -41.28711,-45.68422 -1.61365,-6.60532 -1.62732,-30.77844 -0.021,-37.2393 3.89964,-15.68548 10.08183,-22.47538 42.63025,-46.82089 36.3244,-27.16987 70.22935,-56.0722 82.10554,-69.99102 37.24867,-43.65525 52.08746,-110.02869 42.47044,-189.96897 -1.34266,-11.16069 -3.62711,-25.71803 -4.48726,-28.59446 -0.44,-1.47144 -10.21932,-1.55164 -189.20093,-1.55164 -178.981604,0 -188.760918,0.0802 -189.200927,1.55164 -0.255195,0.8534 -1.068762,5.14257 -1.807925,9.53149 -4.479239,26.59627 -6.404567,58.00956 -4.98672,81.36238 3.282514,54.06505 16.39028,92.49805 42.701892,125.20527 11.29307,14.0381 46.03469,43.92188 84.57831,72.75193 32.11504,24.02157 38.34525,30.88474 42.23346,46.52427 1.60627,6.46086 1.5926,30.63398 -0.0211,37.2393 -3.7583,15.38424 -9.79668,22.06847 -41.27455,45.68926 -35.30047,26.48923 -64.82078,51.23847 -79.31012,66.49197 -39.890276,41.99414 -56.571636,111.63633 -46.612315,194.59965 1.250595,10.41773 3.656953,25.68139 4.438428,28.15318 0.280029,0.88573 38.597057,1.06511 189.404007,0.88665 l 189.05295,-0.2237 z"
     id="path13"
     transform="matrix(0.93752196,0,0,0.93752196,0,-0.00769344)" />
  <path
     style="fill:#999999;stroke-width:1.7733"
     d="M 23.730903,78.425541 C -6.4058507,63.407764 -6.5572317,21.034926 23.472407,6.0705257 L 32.849489,1.3977292 H 268.40715 c 255.2363,0 240.63332,-0.56072811 252.81119,9.7074918 9.21465,7.769675 13.5235,17.660393 13.59972,31.217468 0.056,9.955323 -0.72118,12.938099 -5.30119,20.34607 -3.32627,5.380124 -8.66707,10.721063 -14.04698,14.047337 l -8.6802,5.366779 -236.93204,0.462293 -236.932027,0.462296 z"
     id="path15"
     transform="matrix(0.93752196,0,0,0.93752196,0,-0.00769344)" />
  <path
     style="fill:#ffff00;stroke-width:1.7733"
     d="m 266.46148,442.88526 c -3.9357,-20.97908 -17.98973,-36.44696 -68.38932,-75.26936 -29.06981,-22.39225 -62.65662,-53.29181 -67.24449,-61.86433 l -2.02881,-3.79087 h 139.38718 139.38719 l -3.75335,5.27107 c -12.54528,17.61824 -36.64241,39.09704 -81.0469,72.24058 -35.94686,26.83076 -44.62337,36.94301 -52.03325,60.64344 l -2.99856,9.59085 z"
     id="path17"
     transform="matrix(0.93752196,0,0,0.93752196,0,-0.00769344)" />
  <path
     style="fill:#ffff00;stroke-width:1.7733"
     d="m 99.544508,788.55154 c -3.317551,-22.12301 3.302082,-42.63389 17.796192,-55.14135 11.60682,-10.01591 43.48046,-24.36702 85.31562,-38.41337 21.53433,-7.23026 41.88295,-14.55207 45.21915,-16.27071 9.35428,-4.81884 17.33566,-11.41017 18.58574,-15.34883 1.04065,-3.2788 1.39944,-3.12943 4.42217,1.84104 4.57431,7.52186 24.54762,16.73571 69.9496,32.26834 62.13219,21.25625 81.93619,33.12616 92.2577,55.29637 4.44805,9.55424 5.82387,25.66158 3.27883,38.38678 l -1.10831,5.54156 H 268.01467 100.76815 Z"
     id="path19"
     transform="matrix(0.93752196,0,0,0.93752196,0,-0.00769344)" />
  <path
     style="fill:#999999;stroke-width:0.221662"
     d="m 67.117183,837.28788 c -0.36362,-1.04227 -2.100877,-8.44681 -2.004426,-8.54326 0.06602,-0.066 0.120042,-0.004 0.120042,0.13856 0,0.19684 47.910761,0.25861 200.604551,0.25861 H 466.4419 v 4.21158 4.21159 H 266.82788 c -159.4919,0 -199.633462,-0.0557 -199.710697,-0.27708 z"
     id="path21"
     transform="matrix(0.93752196,0,0,0.93752196,0,-0.00769344)" />
</svg>
