<?xml version="1.0" encoding="utf-8"?>

<!DOCTYPE svg PUBLIC "-//W3C//DTD SVG 1.1//EN" "http://www.w3.org/Graphics/SVG/1.1/DTD/svg11.dtd">
<svg version="1.1" id="Layer_1" xmlns="http://www.w3.org/2000/svg" xmlns:xlink="http://www.w3.org/1999/xlink" x="0px" y="0px"
	 viewBox="0 0 682.147 1630.738" enable-background="new 0 0 682.147 1630.738" xml:space="preserve">
<g>
	<polygon points="324.777,427.962 362.633,427.962 384.017,374.31 337.406,347.455 296.413,374.31 	"/>
	<path d="M341.103,277.44c72.342,0,131.05-58.677,131.05-131.021c0-72.402-58.708-131.05-131.05-131.05
		c-72.403,0-131.052,58.648-131.052,131.05C210.052,218.763,268.7,277.44,341.103,277.44z"/>
	<path d="M485.863,311.012h-6.567l-0.433,2.031l-11.952-2.166l1.336-1.166l-44.126-16.918c0,0-23.987,54.657-86.688,43.714
		l56.756,37.858l45.844-40.022l-50.59,243.882l-22.072-139.231h-42.559l-22.411,180.45l-0.316-0.428l-48.463-262.795l18.368,18.144
		l65.421-37.858c-62.701,10.943-86.715-43.714-86.715-43.714l-44.158,16.918l0.318,0.314l-4.822,0.987h-5.69
		c-92.692,0-168.642,75.153-168.642,167.902v406.343c0,31.675,24.902,57.437,56.608,57.437c31.735,0,57.406-25.762,57.406-57.437
		V518.843h29.222c0,0,0.65,956.779,0.65,1019.658c0,42.441,34.426,76.868,76.898,76.868c42.47,0,76.868-34.426,76.868-76.868V946.42
		h31.497v592.081c0,42.441,34.457,76.868,76.898,76.868s77.252-34.426,77.252-76.868V518.843h29.516v366.415
		c0,31.675,25.671,57.437,57.348,57.437c31.704,0,56.578-25.762,56.578-57.437V478.914
		C654.444,386.165,578.553,311.012,485.863,311.012z"/>
</g>
</svg>
