<?xml version="1.0" encoding="UTF-8" standalone="no"?>
<svg
   xmlns:dc="http://purl.org/dc/elements/1.1/"
   xmlns:cc="http://creativecommons.org/ns#"
   xmlns:rdf="http://www.w3.org/1999/02/22-rdf-syntax-ns#"
   xmlns:svg="http://www.w3.org/2000/svg"
   xmlns="http://www.w3.org/2000/svg"
   xmlns:sodipodi="http://sodipodi.sourceforge.net/DTD/sodipodi-0.dtd"
   xmlns:inkscape="http://www.inkscape.org/namespaces/inkscape"
   id="svg5205"
   sodipodi:docname="jubilee-crown.svg"
   inkscape:export-filename="C:\Users\jparagreen\SkyDrive\Jubilee invites\jubilee crown blue.png"
   viewBox="0 0 320 200"
   inkscape:export-xdpi="300"
   version="1.1"
   inkscape:export-ydpi="300"
   inkscape:version="1.0.2 (e86c870879, 2021-01-15)">
  <defs
     id="defs8" />
  <sodipodi:namedview
     id="base"
     bordercolor="#666666"
     inkscape:pageshadow="2"
     inkscape:window-y="27"
     fit-margin-left="0"
     pagecolor="#ffffff"
     fit-margin-top="0"
     inkscape:window-maximized="1"
     inkscape:zoom="1.979899"
     inkscape:window-x="0"
     inkscape:window-height="689"
     showgrid="false"
     borderopacity="1.0"
     inkscape:current-layer="layer1"
     inkscape:cx="188.36512"
     inkscape:cy="86.863115"
     fit-margin-right="0"
     fit-margin-bottom="0"
     inkscape:window-width="1366"
     inkscape:pageopacity="0.0"
     inkscape:document-units="px"
     inkscape:document-rotation="0" />
  <g
     id="layer1"
     inkscape:label="Layer 1"
     inkscape:groupmode="layer"
     transform="translate(28.571 -249.51)">
    <path
       id="imagebot_4"
       style="fill:#092c70"
       inkscape:connector-curvature="0"
       d="m121.38 249.51v2.1354l7.5211 9.0705v3.4871l-12.078-5.6225h-2.2782v14.771h2.2782l12.078-4.9564v8.4239c-8.3337 0.87101-14.74 5.9954-14.74 12.185 0 6.8009 7.7091 12.322 17.238 12.322s17.265-5.5216 17.265-12.322c0-5.9913-5.9995-10.966-13.944-12.068v-7.9537l12.023 4.9368h2.1411v-13.988h-2.1411l-12.023 5.5833v-4.7997l7.521-9.0705v-2.1354h-20.861zm7.5211 30.385v7.3465c-3.2878-0.40947-6.2872-1.4107-8.8112-2.821 1.8461-2.314 5.0309-4.0014 8.8112-4.5254zm5.8192 0.13713c3.7891 0.71447 6.9023 2.6141 8.5091 5.1131-2.495 1.1627-5.4022 1.913-8.5091 2.1745v-7.2877zm-35.629 11.46c-4.3313 0-7.8504 2.5116-7.8504 5.6029s3.5191 5.5833 7.8504 5.5833c4.3314 0 7.8504-2.492 7.8504-5.5833s-3.519-5.6029-7.8504-5.6029zm64.642 0c-4.3312 0-7.8503 2.5116-7.8503 5.6029s3.5191 5.5833 7.8503 5.5833c4.3313 0 7.8504-2.492 7.8504-5.5833s-3.5191-5.6029-7.8504-5.6029zm-35.464 1.3126c4.5584 0 8.7465 1.099 12.105 2.9386-2.3347 1.584-5.5001 2.5468-8.9758 2.5468-4.6351 0-8.7003-1.726-11.007-4.3295 2.4141-0.74165 5.084-1.1558 7.878-1.1558zm-49.875 2.488c-3.9848 0-7.2192 2.3083-7.2192 5.1523s3.2344 5.1524 7.2192 5.1524 7.2191-2.3084 7.2191-5.1524-3.2343-5.1523-7.2191-5.1523zm106.04 0c-3.9848 0-7.2192 2.3083-7.2192 5.1523s3.2344 5.1524 7.2192 5.1524 7.219-2.3084 7.219-5.1524-3.2342-5.1523-7.219-5.1523zm-124.87 6.3865c-3.5517 0-6.4231 2.0493-6.4231 4.5842s2.8714 4.6038 6.4231 4.6038c3.5518 0 6.4232-2.0689 6.4232-4.6038s-2.8714-4.5842-6.4232-4.5842zm143.7 0c-3.5517 0-6.423 2.0493-6.423 4.5842s2.8713 4.6038 6.423 4.6038 6.4231-2.0689 6.4231-4.6038-2.8714-4.5842-6.4231-4.5842zm-93.985 1.8023-2.9096 0.31345c-24.627 2.6464-47.732 9.5621-66.097 16.848-18.365 7.2858-31.835 14.809-37.77 19.375l5.5996 3.7026c4.776-3.6747 18.128-11.265 35.903-18.317 17.027-6.7551 38.273-13.095 60.58-15.829 3.2659 5.2215 6.3629 10.041 9.5797 21.843h7.4936c-3.717-13.638-7.6258-20.157-11.227-26.016l-1.153-1.9199zm44.275 0-1.1528 1.9199c-3.6008 5.8589-7.5097 12.378-11.227 26.016h7.4936c3.2168-11.803 6.3138-16.622 9.5797-21.843 22.307 2.7342 43.553 9.0741 60.58 15.829 17.776 7.0519 31.127 14.642 35.903 18.317l5.5995-3.7026c-5.9341-4.5658-19.405-12.089-37.77-19.375-18.365-7.2858-41.47-14.201-66.097-16.848l-2.9096-0.31345zm-22.151 0.37225c-3.6383 0-6.5877 2.105-6.5877 4.7017s2.9494 4.7017 6.5877 4.7017c3.6384 0 6.5878-2.105 6.5878-4.7017s-2.9494-4.7017-6.5878-4.7017zm-88.468 3.7614c-3.2918 0-5.9564 1.9018-5.9564 4.2511 0 2.3494 2.6646 4.2512 5.9564 4.2512 3.2917 0 5.9839-1.9018 5.9839-4.2512s-2.6922-4.2511-5.9839-4.2511zm176.96 0c-3.2918 0-5.9838 1.9018-5.9838 4.2511 0 2.3494 2.692 4.2512 5.9838 4.2512s5.9565-1.9018 5.9565-4.2512-2.6647-4.2511-5.9565-4.2511zm-193.9 7.6011c-3.1186 0-5.6271 1.8099-5.6271 4.0356s2.5085 4.0357 5.6271 4.0357c3.1185 0 5.6545-1.8099 5.6545-4.0357 0-2.2257-2.536-4.0356-5.6545-4.0356zm210.84 0c-3.1186 0-5.6546 1.8099-5.6546 4.0356s2.536 4.0357 5.6546 4.0357 5.627-1.8099 5.627-4.0357c0-2.2257-2.5084-4.0356-5.627-4.0356zm-105.43 0.6269c-3.1186 0-5.6271 1.8099-5.6271 4.0356s2.5085 4.0161 5.6271 4.0161c3.1185 0 5.6545-1.7903 5.6545-4.0161 0-2.2257-2.536-4.0356-5.6545-4.0356zm-120.45 7.4444c-2.7722 0-5.0232 1.6066-5.0232 3.5851 0 1.9784 2.251 3.5851 5.0232 3.5851 2.772 0 5.0232-1.6066 5.0232-3.5851 0-1.9784-2.2512-3.5851-5.0232-3.5851zm240.92 0c-2.7722 0-5.0232 1.6066-5.0232 3.5851 0 1.9784 2.251 3.5851 5.0232 3.5851 2.772 0 5.0232-1.6066 5.0232-3.5851 0-1.9784-2.2512-3.5851-5.0232-3.5851zm-202.02 0.90116c-7.2567 8.0368-6.9565 18.381-2.5255 29.993-33.705-10.238-45.307 20.615-19.763 29.993-1.952-7.488-0.082-15.477 11.309-16.339 6.0921-0.46086 13.248 0.76903 14.109 8.7374 0.6054 5.6055-6.0511 18.99-26.982 18.807-13.079-0.11582-27.046-3.6121-33.241-18.572-2.3092-5.5764-2.2697-5.3043 5.4076-3.0365 3.0044 0.88753 6.8113 2.7294 13.093 6.602-0.4447-6.2642-4.6896-22.161-9.0856-26.859-5.8703 2.9619-6.4968 6.4526-17.567 8.7178 3.9336-5.4338 7.5826-10.979 13.176-17.005-11.652 0.62044-18.662 2.6144-26.351 3.8006 1.8032 5.337 3.6347 10.606 6.2584 14.771-5.7691 7.9824-0.9414 11.571 5.0232 15.457 2.4288 1.5826 13.396 24.611 7.8502 32.462-2.9235 4.1391-1.214 8.5651 2.8274 10.52 4.5213 2.1871 8.583 4.9972 12.27 7.895 4.721 3.7108 3.6229 4.094 9.415 1.8219 20.39-7.9987 64.848-13.498 116.36-13.498 51.508 0 95.966 5.4992 116.36 13.498 5.7921 2.2721 4.694 1.8889 9.415-1.8219 3.6866-2.8978 7.7483-5.7079 12.27-7.895 4.0416-1.955 5.7509-6.381 2.8274-10.52-5.5456-7.851 5.4214-30.879 7.8502-32.462 5.9646-3.8864 10.792-7.4746 5.0232-15.457 2.6237-4.1657 4.4552-9.4343 6.2584-14.771-7.689-1.1862-14.699-3.1801-26.351-3.8006 5.5929 6.0259 9.2419 11.571 13.176 17.005-11.071-2.2652-11.697-5.7559-17.567-8.7178-4.396 4.698-8.6409 20.594-9.0856 26.859 6.2818-3.8727 10.089-5.7145 13.093-6.602 7.6773-2.2678 7.7167-2.5399 5.4076 3.0365-6.1949 14.96-20.161 18.456-33.241 18.572-20.931 0.18271-27.588-13.201-26.982-18.807 0.8605-7.9684 8.0167-9.1983 14.109-8.7374 11.391 0.86169 13.261 8.8506 11.309 16.339 25.544-9.3783 13.942-40.231-19.763-29.993 4.431-11.612 4.7312-21.956-2.5255-29.993-8.7729 6.2925-19.054 11.622-15.673 28.641-6.3464-3.2487-11.87-6.5194-17.567-5.5833-7.681 1.262-14.671 3.488-16.003 12.087-0.9299 6.0046 3.9085 11.731 10.348 15.437 0.8584-5.8923 2.3853-11.029 11.611-11.186 10.593-0.18067 12.56 6.0636 12.242 10.971-0.4408 6.7952-13.321 14.768-29.81 13.89-16.528-0.88067-30.852-10.935-30.606-23.117 5.2322 0.89591 11.815 4.7776 14.85 6.6412 0.5844 0.35891 2.6258 0.33207 3.2116 0.35265v-25.468c-0.7676 0.0116-2.3426-0.14452-3.2664 0.25469-4.7408 2.0476-10.375 8.548-13.67 7.9734 2.5596-7.4662 9.5515-16.445 9.7169-19.493h-33.927c0.1649 3.0477 7.1573 12.026 9.7169 19.493-3.2947 0.57464-8.9288-5.9258-13.67-7.9734-0.9238-0.39908-2.4988-0.24249-3.2664-0.25469v25.468c0.5858-0.0206 2.6272 0.006 3.2116-0.35265 3.0345-1.8635 9.6177-5.7452 14.85-6.6412 0.2464 12.182-14.078 22.236-30.606 23.117-16.489 0.8786-29.369-7.0945-29.81-13.89-0.3184-4.9072 1.6488-11.151 12.242-10.971 9.2256 0.1574 10.752 5.2939 11.611 11.186 6.4398-3.7066 11.278-9.4327 10.348-15.437-1.3318-8.5994-8.3217-10.825-16.003-12.087-5.6971-0.93607-11.221 2.3346-17.567 5.5833 3.3812-17.019-6.9003-22.349-15.673-28.641zm81.551 2.2921c-2.2522 0-4.0624 1.2919-4.0624 2.8994s1.8102 2.919 4.0624 2.919c2.2523 0 4.0899-1.3115 4.0899-2.919s-1.8376-2.8994-4.0899-2.8994zm-132.69 5.309c-2.2523 0-4.0899 1.3115-4.0899 2.919s1.8376 2.8994 4.0899 2.8994 4.0898-1.2919 4.0898-2.8994-1.8375-2.919-4.0898-2.919zm265.4 0c-2.2523 0-4.0899 1.3115-4.0899 2.919s1.8376 2.8994 4.0899 2.8994 4.0899-1.2919 4.0899-2.8994-1.8376-2.919-4.0899-2.919zm-132.72 25.35c1.9059 0 3.4587 1.1082 3.4587 2.4684s-1.5528 2.4684-3.4587 2.4684c-1.9058 0-3.4311-1.1082-3.4311-2.4684s1.5253-2.4684 3.4311-2.4684zm-150.45 9.6386c1.3912-0.0204 3.0699 1.5988 3.8702 3.781 0.854 2.3277 0.3666 4.4234-1.0704 4.6822-1.4371 0.25875-3.291-1.4141-4.1448-3.7418-0.8539-2.3277-0.3665-4.4234 1.0704-4.6822 0.09-0.0164 0.1821-0.0376 0.2746-0.0391zm300.95 0c0.093 0.001 0.1846 0.0231 0.2746 0.0391 1.4369 0.25876 1.9243 2.3544 1.0704 4.6822-0.8538 2.3277-2.7077 4.0006-4.1448 3.7418-1.437-0.25874-1.9244-2.3544-1.0704-4.6821 0.8003-2.1822 2.479-3.8014 3.8702-3.781zm-150.5 24.292 8.0976 9.2272-8.0976 9.2467-8.0975-9.2467 8.0975-9.2272zm-33.57 3.1933c2.2523 0 4.0899 1.2919 4.0899 2.8994 0 1.6074-1.8376 2.919-4.0899 2.919-2.2522 0-4.0624-1.3115-4.0624-2.919s1.8102-2.8994 4.0624-2.8994zm67.195 0c2.2522 0 4.0624 1.2919 4.0624 2.8994 0 1.6074-1.8102 2.919-4.0624 2.919-2.2523 0-4.0899-1.3115-4.0899-2.919s1.8376-2.8994 4.0899-2.8994zm-98.185 0.6073c8.3424 0.11698 15.155 3.2644 15.948 7.7187 0.9059 5.0907-6.4066 9.9534-16.332 10.853-9.9256 0.89983-18.693-2.5105-19.598-7.6011-0.9061-5.0907 6.4065-9.9338 16.332-10.834 1.2407-0.11248 2.4589-0.15371 3.6507-0.13713zm129.17 0c1.1918-0.0164 2.41 0.0246 3.6507 0.13713 9.9256 0.89981 17.238 5.7429 16.332 10.834-0.9059 5.0907-9.6729 8.501-19.598 7.6012-9.9256-0.8998-17.238-5.7625-16.332-10.853 0.7928-4.4543 7.6055-7.6016 15.948-7.7187zm-169.85 8.228c2.2521 0 4.0897 1.3115 4.0897 2.919s-1.8376 2.8994-4.0897 2.8994c-2.2523 0-4.0899-1.2919-4.0899-2.8994s1.8376-2.919 4.0899-2.919zm210.53 0c2.2523 0 4.0899 1.3115 4.0899 2.919s-1.8376 2.8994-4.0899 2.8994c-2.2521 0-4.0897-1.2919-4.0897-2.8994s1.8376-2.919 4.0897-2.919zm-136.67 3.252c2.2523 0 4.0899 1.2919 4.0899 2.8994s-1.8376 2.919-4.0899 2.919-4.0624-1.3115-4.0624-2.919 1.8101-2.8994 4.0624-2.8994zm62.803 0c2.2523 0 4.0624 1.2919 4.0624 2.8994s-1.8101 2.919-4.0624 2.919-4.0899-1.3115-4.0899-2.919 1.8376-2.8994 4.0899-2.8994zm-164.36 2.9778 8.7013 5.0544-2.5253 7.8167-8.7288-5.074 2.5528-7.797zm265.93 0 2.5528 7.797-8.7288 5.074-2.5253-7.8167 8.7013-5.0544zm-235.24 5.5246c2.2523 0 4.0626 1.3115 4.0626 2.919s-1.8103 2.8994-4.0626 2.8994c-2.2521 0-4.0899-1.2919-4.0899-2.8994 0-1.6074 1.8378-2.919 4.0899-2.919zm204.55 0c2.2523 0 4.0899 1.3115 4.0899 2.919s-1.8376 2.8994-4.0899 2.8994-4.0626-1.2919-4.0626-2.8994c0-1.6074 1.8103-2.919 4.0626-2.919zm-102.27 7.0134c-63.584 0-115.12 9.2843-115.12 14.556 0 4.8242 51.537 13.086 115.12 13.086 63.584 0 115.12-8.2623 115.12-13.086 0-5.2715-51.537-14.556-115.12-14.556z" />
    <path
       style="fill:#ffff00;stroke-width:0.714286"
       d="m 34.155148,180.20466 c -2.199317,-1.74947 -6.377889,-4.58253 -9.285715,-6.29568 -6.906088,-4.06872 -7.815512,-5.7834 -5.732658,-10.80866 2.858441,-6.89651 1.589003,-15.79349 -3.898089,-27.32013 -1.727698,-3.62935 -3.318455,-5.79408 -5.4743648,-7.44963 -1.6714428,-1.28352 -3.5943399,-2.9992 -4.2731044,-3.81261 -1.5490086,-1.8563 -1.620267,-6.01227 -0.1393388,-8.12659 C 6.4071148,114.8848 6.321137,114.41132 3.9935486,108.911 0.49432308,100.64199 0.35123001,100.01104 1.8740556,99.56538 5.0184932,98.645141 21.615323,96.186216 23.325151,96.387265 l 1.897952,0.223169 -2.172783,2.5 c -1.195031,1.374996 -4.00361,4.991076 -6.241287,8.035716 -3.315571,4.51125 -3.815542,5.53571 -2.70162,5.53571 2.554549,0 7.605419,-2.18853 11.753445,-5.09274 2.274539,-1.5925 4.5642,-2.73096 5.088138,-2.52991 1.374299,0.52737 5.138367,9.97999 6.978388,17.52466 0.869442,3.56499 1.434846,6.62776 1.256453,6.80616 -0.178393,0.17839 -3.215249,-1.09557 -6.74857,-2.83104 -3.53332,-1.73546 -7.79029,-3.35885 -9.459933,-3.60754 -2.696281,-0.40161 -3.035714,-0.29499 -3.035714,0.95361 0,2.70845 4.330647,10.05192 7.892921,13.38401 4.488592,4.19855 9.768653,6.6423 17.305195,8.00931 10.29389,1.86713 21.157291,0.40441 27.659027,-3.72422 5.772607,-3.66562 9.8121,-10.50531 8.942385,-15.14128 -1.1045,-5.88752 -4.630028,-8.30304 -12.156671,-8.32917 -9.404654,-0.0326 -14.235826,3.97691 -14.25305,11.82907 l -0.0089,4.03663 -2.595097,-1.32392 c -6.182643,-3.15415 -9.92871,-8.46317 -9.92871,-14.07122 0,-3.82204 0.816778,-5.86019 3.634523,-9.06942 5.548467,-6.31936 15.679735,-8.08978 28.274655,-4.94094 l 1.552043,0.38802 -1.446407,-4.52789 c -2.0191,-6.320648 -2.055436,-14.875379 -0.08144,-19.170749 0.812443,-1.767857 1.965179,-3.851101 2.561643,-4.62943 1.062514,-1.386494 1.164772,-1.359838 5.050886,1.316628 8.918436,6.142366 12.172436,11.774641 11.766286,20.366015 -0.132422,2.801076 0.0095,5.092136 0.315321,5.091256 0.305843,-8.6e-4 2.438907,-0.95206 4.740136,-2.11371 6.748244,-3.406511 9.670494,-3.889039 15.453584,-2.551734 6.10715,1.412244 9.69981,3.696484 11.37882,7.234734 1.80508,3.80392 1.61964,7.46385 -0.56726,11.19551 -1.79276,3.05911 -6.0382,6.94787 -7.58514,6.94787 -0.41907,0 -0.76314,-0.72321 -0.76461,-1.60714 -0.004,-2.39086 -2.49088,-6.02529 -5.0166,-7.33139 -2.48783,-1.28651 -10.01915,-1.56051 -12.852523,-0.46761 -4.295228,1.65678 -6.911878,7.18565 -5.618193,11.87099 1.896557,6.86875 14.152166,12.54689 27.032916,12.5246 17.0379,-0.0295 31.44695,-8.95233 33.31389,-20.6297 l 0.50205,-3.14026 -2.07229,0.47118 c -1.13976,0.25915 -4.97165,1.91334 -8.51531,3.67597 -3.54366,1.76264 -6.67759,3.20479 -6.96429,3.20479 -0.2867,0 -0.52127,-5.625 -0.52127,-12.5 0,-14.760171 -0.22177,-14.504895 7.74225,-8.91198 2.81004,1.97341 5.95033,3.90783 6.97844,4.29872 1.7884,0.67995 1.84825,0.62515 1.38343,-1.26659 -0.26721,-1.08751 -2.39281,-5.380391 -4.72355,-9.539737 -2.33074,-4.159346 -4.23771,-7.775417 -4.23771,-8.035714 0,-0.260298 7.39286,-0.473268 16.42857,-0.473268 9.03571,0 16.42857,0.194521 16.42857,0.432269 0,0.237748 -2.08928,4.370624 -4.64286,9.184169 -2.55357,4.813541 -4.64285,9.123341 -4.64285,9.577321 0,1.29541 4.12978,-0.69895 9.24515,-4.46468 2.46589,-1.815277 5.25164,-3.300507 6.19057,-3.300507 h 1.70713 v 12.499997 c 0,9.41421 -0.21685,12.5 -0.87841,12.5 -0.48313,0 -3.77777,-1.44215 -7.32143,-3.20479 -7.5103,-3.73566 -10.37158,-4.58363 -10.37158,-3.07371 0,0.56057 0.5087,2.73223 1.13046,4.82591 2.18337,7.35221 10.95113,13.94615 22.43204,16.8704 6.33778,1.61427 17.88595,1.06962 24.1707,-1.13996 7.49342,-2.63452 13.71622,-8.4464 13.67968,-12.77633 -0.009,-1.02226 -0.61071,-3.16876 -1.33796,-4.76999 -1.72854,-3.80584 -4.99975,-5.39224 -11.11895,-5.39224 -7.05597,0 -9.99507,1.97133 -11.44338,7.67537 l -0.81776,3.22065 -2.9158,-2.36765 c -4.32914,-3.51531 -6.63618,-7.3962 -6.63618,-11.16338 0,-6.58014 4.8505,-11.15496 13.75009,-12.96859 4.62638,-0.942804 9.28608,0.026 15.65995,3.25588 1.86978,0.9475 3.50589,1.72272 3.63578,1.72272 0.1299,0 0.105,-2.05995 -0.0553,-4.577661 -0.53935,-8.470334 3.03633,-14.877148 11.59148,-20.769303 4.60838,-3.173917 5.13459,-2.991911 7.54422,2.60942 2.38527,5.544727 2.57973,10.000658 0.75438,17.286816 -0.86551,3.454808 -1.41802,6.437108 -1.2278,6.627328 0.19023,0.19023 1.58367,0.0327 3.09654,-0.35011 7.5266,-1.90437 15.44947,-1.48181 20.57748,1.0975 2.80975,1.41326 6.66326,5.0517 7.94842,7.50482 1.44908,2.766 1.27278,8.6896 -0.35267,11.84964 -1.85469,3.60573 -6.26476,7.4706 -10.14964,8.8949 -0.98088,0.35961 -1.10368,-0.0374 -0.81204,-2.62483 0.52732,-4.67838 -1.75337,-9.19161 -5.65071,-11.18215 -4.12372,-2.10615 -11.907,-2.28627 -15.80592,-0.36577 -7.42872,3.65918 -6.31298,14.41151 2.16655,20.87906 5.62756,4.29229 10.14652,5.53682 20.18634,5.5594 12.72318,0.0286 19.64201,-2.23157 26.51706,-8.66238 3.44889,-3.22605 7.76863,-10.60357 7.76863,-13.26777 0,-1.2486 -0.33944,-1.35522 -3.03571,-0.95361 -1.66965,0.24869 -5.92662,1.87208 -9.45994,3.60754 -3.53331,1.73547 -6.53745,3.04216 -6.67584,2.90376 -0.39062,-0.39062 1.81044,-9.52329 3.41684,-14.17721 1.92329,-5.57195 4.40703,-10.46082 5.31451,-10.46082 0.40438,0 2.51704,1.23775 4.69483,2.75056 4.33723,3.01289 9.91785,5.38117 11.77105,4.99536 0.8999,-0.18735 -0.26908,-2.15989 -4.90786,-8.28163 -7.12497,-9.402734 -7.54759,-8.972027 6.48971,-6.613846 12.466,2.09421 11.8988,1.887379 11.3351,4.133326 -0.26526,1.05688 -1.57516,4.28697 -2.91088,7.17797 -2.28365,4.94265 -2.3656,5.37821 -1.37306,7.29756 1.21352,2.34669 1.3743,5.89614 0.35348,7.80356 -0.38613,0.72149 -2.25588,2.45242 -4.15501,3.8465 -2.53091,1.85786 -4.04913,3.75744 -5.68558,7.11368 -5.70647,11.70364 -7.22345,21.04583 -4.46036,27.4688 1.99592,4.63965 1.53321,6.77479 -1.97992,9.1362 -1.46297,0.98335 -5.07065,3.39122 -8.01707,5.35084 -2.94643,1.95961 -6.24628,4.26623 -7.333,5.12584 l -1.97585,1.56291 -6.95273,-2.25407 c -8.43528,-2.73473 -16.2475,-4.67558 -24.80985,-6.16372 -61.9505,-10.76697 -161.287029,-7.98424 -202.380678,5.66932 -4.059373,1.34875 -7.755801,2.44988 -8.214286,2.44696 -0.458484,-0.003 -2.633049,-1.4367 -4.832365,-3.18618 z m 0.04119,-9.23225 c 0.357463,-0.9402 0.852472,-2.78908 1.10002,-4.10863 0.434237,-2.31468 0.307849,-2.48087 -3.589023,-4.71912 -2.221512,-1.27596 -4.27292,-2.31994 -4.558685,-2.31994 -0.786708,0 -3.183855,8.12551 -2.471572,8.37779 0.340825,0.12071 2.226825,1.17247 4.19111,2.33724 4.331685,2.56856 4.510557,2.58308 5.32815,0.43266 z m 257.259802,-0.59828 c 2.30877,-1.26925 4.19777,-2.65842 4.19777,-3.08705 0,-1.57801 -2.29745,-7.46236 -2.91356,-7.46236 -0.50592,0 -7.16552,3.75864 -8.46416,4.77712 -0.41356,0.32435 2.05672,8.08002 2.57359,8.08002 0.22473,0 2.2976,-1.03848 4.60636,-2.30773 z m -230.503944,-0.0609 c 1.733432,-1.26751 1.193059,-3.41312 -1.196204,-4.74966 -1.761047,-0.98512 -2.157417,-0.98512 -3.918464,0 -3.64363,2.03822 -2.64694,5.68973 1.553028,5.68973 1.25181,0 2.854548,-0.42303 3.56164,-0.94007 z m 204.669084,-0.092 c 2.67134,-3.21877 -2.28662,-6.84924 -6.01632,-4.40545 -2.07613,1.36034 -2.29065,2.71021 -0.68575,4.31511 1.40722,1.40722 5.56267,1.46323 6.70207,0.0903 z m -161.75309,-8.1497 c 5.26522,-2.37218 7.5,-4.78417 7.5,-8.09468 0,-4.3934 -3.51484,-7.00276 -11.34553,-8.42274 -10.21925,-1.8531 -23.238536,2.52739 -24.689107,8.30694 -0.996572,3.97066 1.8345,7.34115 7.805385,9.29258 4.614565,1.50816 16.338365,0.89615 20.729252,-1.0821 z m 133.04585,0.95138 c 6.93806,-2.06039 9.84829,-7.11686 6.52654,-11.33978 -3.34888,-4.25741 -13.7486,-7.43824 -21.25356,-6.50056 -16.69066,2.08536 -18.72172,13.05746 -3.31883,17.92876 3.99213,1.26254 13.65611,1.21519 18.04585,-0.0884 z M 132.054,161.64475 c 1.24708,-1.50264 0.64648,-3.40455 -1.446,-4.57903 -1.56867,-0.88047 -2.11209,-0.88313 -3.91479,-0.0191 -4.00995,1.92195 -2.8121,5.63528 1.81784,5.63528 1.47522,0 3.06955,-0.4667 3.54295,-1.03711 z m 62.85714,0 c 1.28739,-1.55122 0.61264,-3.47769 -1.5874,-4.53214 -1.61386,-0.7735 -2.29723,-0.7735 -3.9111,0 -3.88721,1.8631 -2.58586,5.56925 1.95555,5.56925 1.47522,0 3.06955,-0.4667 3.54295,-1.03711 z M 57.63783,158.71279 c 2.94249,-2.061 1.127783,-5.31664 -2.963517,-5.31664 -2.705836,0 -4.020407,1.08609 -4.020407,3.32165 0,2.89301 4.050078,4.04993 6.983924,1.99499 z m 106.8363,-3.30484 c 4.42543,-4.96809 4.50561,-4.20467 -1.11281,-10.59508 l -3.36401,-3.82624 -3.06456,3.48002 c -6.08037,6.90468 -5.94005,5.8806 -1.49546,10.91417 2.15816,2.44414 4.18911,4.4439 4.51322,4.4439 0.3241,0 2.35973,-1.98755 4.52362,-4.41677 z m 104.08928,2.93584 c 1.33062,-1.33062 1.37676,-1.63873 0.45465,-3.03571 -1.33556,-2.02335 -5.15804,-2.44916 -7.0024,-0.78004 -1.78524,1.61563 -1.72018,2.82177 0.22575,4.18475 2.18535,1.53067 4.56098,1.39202 6.322,-0.369 z m -138.65227,-8.8419 c 1.28739,-1.55121 0.61264,-3.47769 -1.5874,-4.53214 -1.61386,-0.7735 -2.29723,-0.7735 -3.9111,0 -3.88721,1.8631 -2.58586,5.56926 1.95555,5.56926 1.47522,0 3.06955,-0.4667 3.54295,-1.03712 z m 67.14286,0 c 1.28739,-1.55121 0.61263,-3.47769 -1.5874,-4.53214 -1.61387,-0.7735 -2.29724,-0.7735 -3.9111,0 -3.88722,1.8631 -2.58586,5.56926 1.95555,5.56926 1.47522,0 3.06955,-0.4667 3.54295,-1.03712 z M 13.743771,124.71419 c 1.51661,-2.40433 -1.767064,-8.10162 -4.3837826,-7.60602 -0.8234836,0.15597 -1.2762179,1.07307 -1.4271729,2.89101 -0.1735478,2.09002 0.1764129,3.06008 1.627435,4.51111 1.9518565,1.95185 3.0472625,2.00524 4.1835205,0.2039 z m 295.588989,0.76732 c 2.08209,-1.1143 3.7008,-5.30825 2.74099,-7.10167 -0.97563,-1.82298 -2.43839,-1.79264 -4.18944,0.0869 -1.82653,1.96054 -2.45299,4.60742 -1.50828,6.37264 0.87758,1.63975 1.03058,1.67298 2.95673,0.64213 z M 162.68068,112.05443 c 0.52545,-0.33305 0.84688,-1.37277 0.71429,-2.31049 -0.2132,-1.50788 -0.61144,-1.70493 -3.44556,-1.70493 -2.51663,0 -3.2576,0.27569 -3.45185,1.28431 -0.52002,2.70026 3.45901,4.45781 6.18312,2.73111 z"
       id="path10"
       transform="translate(-28.571,249.51)" />
    <path
       style="fill:#ffff00;stroke-width:0.714286"
       d="m 130.36823,199.04795 c -40.747191,-1.59281 -84.714324,-7.83512 -84.714324,-12.02746 0,-3.595 26.576242,-9.04586 57.500004,-11.79339 40.62847,-3.60978 85.50379,-3.21954 124.28571,1.0808 21.4516,2.37867 37.49039,5.46361 44.55264,8.56936 2.63992,1.16095 2.98642,1.53973 2.23585,2.44411 -1.34358,1.61892 -9.22312,3.82486 -20.35992,5.69994 -32.56126,5.48225 -79.20193,7.75826 -123.49996,6.02664 z"
       id="path12"
       transform="translate(-28.571,249.51)" />
    <path
       style="fill:#ff2a2a;stroke-width:0.252538"
       d=""
       id="path14"
       transform="translate(-28.571,249.51)" />
    <path
       style="fill:#ff2a2a;stroke-width:0.252538"
       d="m 157.945,82.171684 c -2.49465,-1.132863 -2.49465,-3.456387 0,-4.58925 2.54091,-1.153868 5.96432,0.163205 5.96432,2.294625 0,0.927869 -0.66968,1.7521 -1.86436,2.294625 -1.32306,0.600824 -2.7769,0.600824 -4.09996,0 z"
       id="path16"
       transform="translate(-28.571,249.51)" />
    <path
       style="fill:#ff2a2a;stroke-width:0.252538"
       d="m 157.59855,73.826239 c -1.94536,-0.671463 -3.03314,-1.896163 -3.03314,-3.414924 0,-3.896911 7.01315,-5.396458 9.96379,-2.130452 0.75293,0.833402 0.89535,1.176431 0.89535,2.156454 0,1.011483 -0.126,1.291401 -0.95398,2.11938 -1.02419,1.024189 -2.97369,1.771015 -4.58456,1.756278 -0.49565,-0.0045 -1.52501,-0.223565 -2.28746,-0.486736 z"
       id="path18"
       transform="translate(-28.571,249.51)" />
    <path
       style="fill:#ff2a2a;stroke-width:0.252538"
       d="m 158.11229,63.452323 c -0.61879,-0.128769 -1.63942,-0.552125 -2.26808,-0.940791 -3.07431,-1.900702 -3.07516,-5.036512 -0.002,-6.936577 4.8597,-3.004517 12.276,0.601 10.20656,4.962027 -1.05466,2.22254 -4.74743,3.579 -7.9366,2.915341 z"
       id="path20"
       transform="translate(-28.571,249.51)" />
    <path
       style="fill:#ff2a2a;stroke-width:0.252538"
       d="m 155.14836,51.199202 c -5.23036,-1.146905 -9.68091,-4.223827 -11.39262,-7.876372 -0.58967,-1.258269 -0.68082,-1.773946 -0.68082,-3.851873 0,-2.136119 0.0808,-2.565212 0.73688,-3.914341 1.73976,-3.577473 6.2842,-6.679336 11.30286,-7.714922 1.29522,-0.267263 2.38335,-0.487426 2.41807,-0.489249 0.0965,-0.0051 0.0752,-8.589615 -0.0214,-8.589615 -0.0465,0 -2.84385,1.136421 -6.21641,2.525381 -4.15921,1.712938 -6.44749,2.525381 -7.11284,2.525381 h -0.98093 V 16.489986 9.1663805 h 1.0639 c 0.8242,0 2.40773,0.6258676 7.02852,2.7779195 3.28054,1.527856 6.04059,2.77792 6.13344,2.77792 0.0928,0 0.16882,-0.80702 0.16882,-1.793378 V 11.135465 L 153.8078,6.5912542 C 150.3481,2.4409634 150.01972,1.9615689 150.01972,1.0610253 V 0.0750076 h 10.35407 10.35406 v 0.981402 c 0,0.8934518 -0.33947,1.3909445 -3.78807,5.551324 l -3.78807,4.5699214 v 2.403628 c 0,1.321995 0.10454,2.403627 0.23232,2.403627 0.12778,0 2.92623,-1.250064 6.21878,-2.777919 3.88817,-1.804245 6.28519,-2.77792 6.83874,-2.77792 h 0.85229 v 6.944799 6.944799 h -0.94376 c -0.61343,0 -2.99042,-0.839735 -6.79104,-2.399113 -3.216,-1.319511 -5.97329,-2.399112 -6.12731,-2.399112 -0.19329,0 -0.27906,1.231999 -0.27691,3.977476 l 0.003,3.977475 2.33286,0.561981 c 4.90274,1.181055 9.01051,4.071132 10.68736,7.51924 0.6561,1.349129 0.73687,1.778222 0.73687,3.914341 0,2.911772 -0.58609,4.390474 -2.62127,6.613436 -3.31387,3.619629 -8.33294,5.526789 -14.42505,5.481267 -1.7362,-0.01298 -3.86036,-0.177878 -4.72035,-0.366458 z m 8.76096,-2.777503 c 1.68905,-0.396874 5.05076,-1.816045 5.05076,-2.132212 0,-0.322047 -3.36912,-1.72897 -5.55584,-2.320081 -1.85619,-0.501763 -2.74442,-0.580095 -6.56599,-0.579045 -3.4399,0.001 -4.78023,0.100124 -6.04734,0.447488 -0.89536,0.245452 -1.68183,0.500182 -1.74772,0.566069 -0.22168,0.221681 1.09058,1.413219 2.49115,2.261977 1.2943,0.784355 3.84223,1.733399 5.30391,1.975583 1.56634,0.259526 5.55942,0.135416 7.07107,-0.219779 z M 165.73827,37.5895 c 2.10848,-0.375934 5.91159,-1.559691 6.12613,-1.90682 0.20046,-0.324355 -2.12239,-2.594177 -3.45248,-3.373664 -1.13479,-0.665032 -3.11649,-1.435904 -4.56573,-1.776055 l -0.69448,-0.162999 v 3.792883 c 0,2.870647 0.0768,3.790742 0.31567,3.784072 0.17362,-0.0048 1.19552,-0.165683 2.27089,-0.357417 z m -8.1424,-3.548113 c 0,-3.661121 -1.1e-4,-3.661803 -0.58551,-3.661803 -1.84118,0 -5.53972,1.686303 -7.38643,3.367748 l -1.2457,1.134227 1.89403,0.902359 c 2.02426,0.964397 5.15794,1.882581 6.50286,1.905367 l 0.82075,0.01391 z"
       id="path22"
       transform="translate(-28.571,249.51)" />
    <path
       style="fill:#ff2a2a;stroke-width:0.252538"
       d="m 190.29956,52.864054 c -2.42068,-0.525003 -4.15129,-1.607681 -5.06673,-3.169766 -1.02269,-1.745077 -0.76436,-3.571289 0.72593,-5.131983 3.13005,-3.277907 9.85646,-3.19935 12.80427,0.149539 1.08363,1.231067 1.41154,2.319836 1.14064,3.787351 -0.23872,1.293204 -2.37443,3.368071 -4.05693,3.941359 -1.51205,0.515205 -4.18385,0.719184 -5.54718,0.4235 z"
       id="path24"
       transform="translate(-28.571,249.51)" />
    <path
       style="fill:#ff2a2a;stroke-width:0.252538"
       d="m 209.74499,55.387626 c -2.78546,-1.105373 -4.29755,-3.2877 -3.68789,-5.322566 0.85758,-2.86234 4.55034,-4.604746 8.45348,-3.988717 3.42899,0.541195 5.5043,2.408033 5.5043,4.951387 0,1.6094 -1.01536,2.987775 -2.91749,3.960557 -1.25567,0.642176 -1.79965,0.760999 -3.77829,0.825302 -1.83963,0.05979 -2.56914,-0.02716 -3.57411,-0.425963 z"
       id="path26"
       transform="translate(-28.571,249.51)" />
    <path
       style="fill:#ff2a2a;stroke-width:0.252538"
       d=""
       id="path28"
       transform="translate(-28.571,249.51)" />
    <path
       style="fill:#ff2a2a;stroke-width:0.252538"
       d="m 229.24538,60.841223 c -2.42125,-0.901656 -3.88363,-2.691683 -3.64606,-4.462939 0.18072,-1.347378 0.92124,-2.282758 2.49924,-3.156882 1.22396,-0.67801 1.55935,-0.744731 3.74352,-0.744731 2.1843,0 2.51952,0.0667 3.74384,0.744905 1.46624,0.812211 2.56961,2.32361 2.56961,3.519837 0,1.343684 -1.24621,2.919534 -3.03045,3.832058 -1.17291,0.599865 -4.57218,0.754662 -5.8797,0.267752 z"
       id="path30"
       transform="translate(-28.571,249.51)" />
    <path
       style="fill:#ff2a2a;stroke-width:0.252538"
       d="m 246.44544,66.245292 c -1.27639,-0.385329 -2.75976,-1.376208 -3.25162,-2.172056 -1.7102,-2.767159 1.06544,-5.788881 5.31578,-5.787056 4.0076,0.0017 6.79947,2.779346 5.43864,5.410898 -1.08613,2.100345 -4.80382,3.363004 -7.5028,2.548214 z"
       id="path32"
       transform="translate(-28.571,249.51)" />
    <path
       style="fill:#ff2a2a;stroke-width:0.252538"
       d="m 262.81267,73.193684 c -1.90114,-0.677734 -3.1343,-2.423466 -2.83581,-4.014533 0.65002,-3.464883 7.36471,-4.5113 9.96252,-1.552558 0.40986,0.466803 0.81935,1.186328 0.90998,1.598945 0.34092,1.552236 -1.04987,3.357075 -3.12141,4.050653 -1.15726,0.387465 -3.71751,0.344489 -4.91528,-0.08251 z"
       id="path34"
       transform="translate(-28.571,249.51)" />
    <path
       style="fill:#ff2a2a;stroke-width:0.252538"
       d="m 278.94044,80.664751 c -1.99112,-0.52069 -3.40737,-1.897746 -3.40737,-3.313074 0,-2.682683 4.5095,-4.322666 7.67392,-2.790796 2.71161,1.312668 2.87297,3.93571 0.33366,5.423846 -1.1742,0.688128 -3.34315,1.008752 -4.60021,0.680024 z"
       id="path36"
       transform="translate(-28.571,249.51)" />
    <path
       style="fill:#ff2a2a;stroke-width:0.252538"
       d="m 290.49635,87.46103 c -0.73776,-0.334892 -1.20412,-0.765335 -1.49886,-1.383414 -0.39554,-0.829449 -0.39717,-0.961645 -0.0216,-1.749279 1.01978,-2.138504 5.08015,-2.572691 6.80743,-0.727939 0.89419,0.955004 1.06138,1.663523 0.60212,2.55163 -0.83435,1.613468 -3.77731,2.267613 -5.88912,1.309002 z"
       id="path38"
       transform="translate(-28.571,249.51)" />
    <path
       style="fill:#ff2a2a;stroke-width:0.252538"
       d="m 281.9709,93.10484 c -4.39781,-3.087665 -15.67999,-9.135638 -23.92473,-12.825185 -21.61173,-9.671323 -44.91768,-16.55641 -66.71794,-19.709937 -3.6143,-0.522829 -4.57104,-0.590046 -4.74477,-0.333353 -1.14585,1.693078 -3.7844,6.353387 -4.68594,8.276478 -1.54927,3.304769 -2.22109,5.073099 -3.59792,9.47018 l -1.18613,3.788072 -3.59323,0.0702 -3.59324,0.0702 0.17798,-0.827815 c 0.74738,-3.476177 4.12519,-12.511255 6.32472,-16.917538 1.71185,-3.42935 5.66758,-10.048244 6.00408,-10.046309 0.1593,9.16e-4 2.22155,0.231976 4.58278,0.513467 24.41596,2.910709 50.273,10.218478 74.71891,21.117211 5.76175,2.568768 14.0418,6.722477 18.34139,9.201025 3.64764,2.102719 8.33376,5.19498 8.33376,5.499256 0,0.175398 -4.91877,3.595663 -5.1118,3.554487 -0.0359,-0.0077 -0.63344,-0.41285 -1.32792,-0.90044 z"
       id="path40"
       transform="translate(-28.571,249.51)" />
    <path
       style="fill:#ff2a2a;stroke-width:0.252538"
       d="m 33.909479,92.244664 -2.594352,-1.736449 1.331662,-0.97009 C 39.415181,84.607472 53.451347,77.473634 67.439753,71.85471 89.87963,62.840963 111.43529,57.188393 133.19794,54.610853 c 3.73583,-0.442468 4.55698,-0.47677 4.74476,-0.198204 2.66975,3.960411 6.56708,11.405875 8.37217,15.99423 1.2532,3.185486 3.70485,10.626153 3.70485,11.244066 0,0.148772 -1.43852,0.246419 -3.63023,0.246419 h -3.63024 l -0.1605,-0.820749 c -0.5921,-3.027733 -3.85591,-11.538015 -5.78638,-15.087796 -0.8107,-1.490743 -3.29707,-5.658094 -3.58212,-6.003931 -0.11443,-0.138829 -9.25279,1.266331 -13.72557,2.110511 -22.771289,4.297794 -46.289307,12.260655 -66.685111,22.578614 -6.146546,3.109454 -10.726561,5.688745 -13.970073,7.867422 -1.210012,0.812768 -2.232791,1.469191 -2.272843,1.458721 -0.04005,-0.01048 -1.24028,-0.800443 -2.667174,-1.755492 z"
       id="path42"
       transform="translate(-28.571,249.51)" />
    <path
       style="fill:#ff2a2a;stroke-width:0.252538"
       d="m 126.0286,52.948394 c -4.37516,-0.838976 -6.92054,-3.840878 -5.79289,-6.831871 0.38375,-1.017846 1.69086,-2.30158 3.05188,-2.997277 5.33807,-2.728609 12.91596,0.593413 11.98393,5.253556 -0.33291,1.664531 -2.06327,3.352755 -4.21434,4.111694 -1.134,0.4001 -3.98818,0.663404 -5.02858,0.463898 z"
       id="path44"
       transform="translate(-28.571,249.51)" />
    <path
       style="fill:#ff2a2a;stroke-width:0.252538"
       d="m 103.58769,55.339551 c -2.60119,-0.999127 -4.1215,-3.276053 -3.55569,-5.325246 1.46652,-5.311296 12.12091,-5.377269 13.86723,-0.08587 0.66455,2.01361 -0.94664,4.417683 -3.63474,5.423431 -1.91223,0.715454 -4.79593,0.710134 -6.6768,-0.01232 z"
       id="path46"
       transform="translate(-28.571,249.51)" />
    <path
       style="fill:#ff2a2a;stroke-width:0.252538"
       d="m 85.592771,60.855521 c -2.511327,-0.938471 -3.931093,-2.662233 -3.68765,-4.477237 0.180721,-1.347378 0.921241,-2.282758 2.499236,-3.156882 1.223963,-0.67801 1.559351,-0.744731 3.743523,-0.744731 2.184298,0 2.519518,0.0667 3.743843,0.744905 1.466234,0.812211 2.56961,2.32361 2.56961,3.519837 0,1.343684 -1.246208,2.919534 -3.030457,3.832058 -1.152977,0.589671 -4.572799,0.754889 -5.838105,0.28205 z"
       id="path48"
       transform="translate(-28.571,249.51)" />
    <path
       style="fill:#ff2a2a;stroke-width:0.252538"
       d="m 69.586327,66.271301 c -3.022682,-0.795332 -4.625186,-3.227448 -3.526474,-5.352123 1.663272,-3.216412 7.816416,-3.599004 10.408138,-0.647159 2.236031,2.546729 -0.220352,5.919191 -4.457405,6.11974 -0.916654,0.04339 -2.007571,-0.01082 -2.424259,-0.120458 z"
       id="path50"
       transform="translate(-28.571,249.51)" />
    <path
       style="fill:#ff2a2a;stroke-width:0.252538"
       d="m 52.095252,73.2265 c -1.969341,-0.714222 -3.355558,-2.614179 -2.984876,-4.091092 0.251916,-1.003713 1.603502,-2.326253 2.873184,-2.811437 4.266728,-1.630447 9.433746,1.465555 7.780744,4.662109 -0.476794,0.922018 -1.700763,1.886682 -2.905703,2.290111 -1.092485,0.365778 -3.692555,0.338654 -4.763349,-0.04969 z"
       id="path52"
       transform="translate(-28.571,249.51)" />
    <path
       style="fill:#ff2a2a;stroke-width:0.252538"
       d="m 38.01906,80.664751 c -1.991125,-0.52069 -3.407377,-1.897746 -3.407377,-3.313074 0,-2.682683 4.509504,-4.322666 7.673925,-2.790796 2.711611,1.312668 2.872973,3.93571 0.33366,5.423846 -1.174201,0.688128 -3.34315,1.008752 -4.600208,0.680024 z"
       id="path54"
       transform="translate(-28.571,249.51)" />
    <path
       style="fill:#008080;stroke-width:0.252538"
       d="m 25.054662,87.415818 c -0.713769,-0.353307 -1.237445,-0.840553 -1.503871,-1.399254 -0.382572,-0.802261 -0.378779,-0.912875 0.0592,-1.726149 1.325294,-2.460921 6.027106,-2.460921 7.3524,0 0.445733,0.827677 0.4474,0.912082 0.03509,1.776708 -0.836274,1.753683 -3.776553,2.420967 -5.942816,1.348695 z"
       id="path56"
       transform="translate(-28.571,249.51)" />
    <path
       style="fill:#00ffff;stroke-width:0.357143"
       d="m 87.588221,163.58663 c -6.860927,-0.81833 -12.043966,-4.35357 -12.043966,-8.21493 0,-3.05982 3.790282,-6.46822 9.159918,-8.23703 7.82994,-2.57925 17.594137,-1.90614 23.083067,1.59127 1.86759,1.18999 3.4713,3.52774 3.4713,5.06017 0,6.2005 -12.044011,11.18723 -23.670319,9.80052 z"
       id="path60"
       transform="translate(-28.571,249.51)" />
    <path
       style="fill:#00ffff;stroke-width:0.357143"
       d="m 156.11847,155.38385 c -2.08367,-2.38786 -3.7885,-4.45383 -3.7885,-4.59106 0,-0.23498 5.22745,-6.36987 6.92529,-8.12747 l 0.78255,-0.81009 3.73536,4.31565 c 2.05446,2.37361 3.73537,4.45529 3.73537,4.62595 0,0.25846 -7.31252,8.92857 -7.53051,8.92857 -0.0391,0 -1.77588,-1.9537 -3.85956,-4.34155 z"
       id="path62"
       transform="translate(-28.571,249.51)" />
    <path
       style="fill:#00ffff;stroke-width:0.357143"
       d="m 126.79412,162.1046 c -1.46453,-0.66154 -2.03714,-1.44186 -1.90067,-2.59014 0.39958,-3.36219 7.25795,-3.16286 7.25795,0.21094 0,2.08461 -3.03023,3.43035 -5.35728,2.3792 z"
       id="path64"
       transform="translate(-28.571,249.51)" />
    <path
       style="fill:#00ffff;stroke-width:0.357143"
       d="m 124.30241,149.90108 c -1.30198,-0.70365 -1.60278,-1.14871 -1.60983,-2.3819 -0.0128,-2.24446 4.40347,-3.38765 6.55351,-1.69643 2.89637,2.27829 -1.52517,5.92587 -4.94368,4.07833 z"
       id="path68"
       transform="translate(-28.571,249.51)" />
    <path
       style="fill:#00ffff;stroke-width:0.357143"
       d="m 191.44526,149.88086 c -1.29808,-0.67686 -1.60274,-1.12381 -1.60982,-2.36168 -0.0128,-2.24446 4.40346,-3.38765 6.55351,-1.69643 3.00755,2.36574 -1.342,5.93615 -4.94369,4.05811 z"
       id="path70"
       transform="translate(-28.571,249.51)" />
    <path
       style="fill:#00ffff;stroke-width:0.357143"
       d="m 190.00854,162.29496 c -1.19302,-0.41443 -1.83834,-0.92118 -2.30572,-1.81059 -0.37995,-0.72301 -0.34308,-0.98651 0.24983,-1.78571 2.00909,-2.70811 7.52676,-1.76359 7.17195,1.2277 -0.20465,1.72528 -3.10393,3.06758 -5.11606,2.3686 z"
       id="path72"
       transform="translate(-28.571,249.51)" />
    <path
       style="fill:#00ffff;stroke-width:0.357143"
       d="m 224.82997,163.78929 c -7.09443,-0.84898 -12.89361,-3.50306 -15.07819,-6.90073 -0.85958,-1.33691 -1.02048,-1.91619 -0.90126,-3.24483 0.19361,-2.15782 1.08388,-3.41343 3.55068,-5.0078 7.66461,-4.95388 23.51376,-3.70311 29.73875,2.34688 2.79442,2.71586 2.97989,5.52631 0.53942,8.17391 -1.63582,1.77466 -4.41126,3.22161 -7.55877,3.94072 -2.40244,0.54887 -8.21811,0.93987 -10.29063,0.69185 z"
       id="path74"
       transform="translate(-28.571,249.51)" />
    <path
       style="fill:#00ffff;stroke-width:0.357143"
       d="m 263.36285,158.80799 c -3.46653,-1.47179 -2.16484,-4.89248 1.8841,-4.9512 4.56464,-0.0662 5.14289,4.62359 0.65445,5.30774 -0.73954,0.11273 -1.77621,-0.0329 -2.53855,-0.35654 z"
       id="path76"
       transform="translate(-28.571,249.51)" />
    <path
       style="fill:#00ffff;stroke-width:0.357143"
       d="m 260.90999,170.78501 c -1.36869,-0.31766 -2.50859,-1.47364 -2.50859,-2.54398 0,-1.91346 3.25363,-3.29108 5.63352,-2.38529 1.75938,0.66963 2.55474,2.04792 1.89411,3.28232 -0.73123,1.36631 -3.00849,2.11357 -5.01904,1.64695 z"
       id="path78"
       transform="translate(-28.571,249.51)" />
    <path
       style="fill:#00ffff;stroke-width:0.357143"
       d="m 285.61015,168.58705 c -0.61739,-2.0011 -1.08567,-3.66608 -1.04064,-3.69997 0.045,-0.0339 1.9292,-1.12863 4.18702,-2.43276 l 4.10513,-2.37113 1.16701,3.48093 c 0.64186,1.91452 1.10161,3.65138 1.02168,3.8597 -0.14641,0.38152 -7.55926,4.80158 -8.05271,4.80158 -0.14573,0 -0.7701,-1.63726 -1.38749,-3.63835 z"
       id="path82"
       transform="translate(-28.571,249.51)" />
    <path
       style="fill:#00ffff;stroke-width:0.357143"
       d=""
       id="path84"
       transform="translate(-28.571,249.51)" />
    <path
       style="fill:#00ffff;stroke-width:0.357143"
       d="m 53.193778,158.9843 c -3.665418,-1.06429 -2.531043,-5.15175 1.429742,-5.15175 1.85886,0 3.204828,0.67062 3.75076,1.86882 0.533283,1.17042 -0.259462,2.4532 -1.953476,3.16101 -1.354881,0.5661 -1.657859,0.57755 -3.227026,0.12192 z"
       id="path86"
       transform="translate(-28.571,249.51)" />
    <path
       style="fill:#00ffff;stroke-width:0.357143"
       d="m 56.084694,170.60139 c -2.406293,-0.83286 -2.9921,-2.38537 -1.473199,-3.90427 1.673021,-1.67302 5.314656,-1.46136 6.520494,0.37898 1.561027,2.38243 -1.722746,4.67599 -5.047295,3.52529 z"
       id="path88"
       transform="translate(-28.571,249.51)" />
    <path
       style="fill:#00ffff;stroke-width:0.357143"
       d="m 28.937112,170.05998 c -1.964286,-1.15775 -3.699323,-2.30933 -3.855639,-2.55907 -0.164586,-0.26296 0.212147,-1.91982 0.895068,-3.93649 l 1.179277,-3.48241 3.910322,2.27358 c 2.150678,1.25047 3.975733,2.46981 4.055679,2.70965 0.221988,0.66596 -1.823256,7.16437 -2.244004,7.12994 -0.203101,-0.0166 -1.976417,-0.97746 -3.940703,-2.1352 z"
       id="path90"
       transform="translate(-28.571,249.51)" />
    <path
       style="fill:#ff0000;stroke-width:0.357143"
       d="m 9.8661585,124.3495 c -1.329051,-1.32905 -1.9986004,-3.39167 -1.6698375,-5.14413 0.5991554,-3.19377 4.129621,-1.33105 5.231249,2.76009 0.857954,3.1862 -1.308806,4.63665 -3.5614115,2.38404 z"
       id="path92"
       transform="translate(-28.571,249.51)" />
    <path
       style="fill:#ff0000;stroke-width:0.126269"
       d="m 158.52265,112.27444 c -0.76441,-0.24269 -1.6613,-1.087 -1.83655,-1.7289 -0.1828,-0.66951 0.0288,-1.32315 0.60667,-1.87445 0.40857,-0.38975 0.58773,-0.46562 1.26725,-0.53664 1.02332,-0.10696 2.30057,-0.0937 3.06324,0.0317 1.0415,0.17134 1.80955,1.12803 1.69826,2.11537 -0.139,1.23319 -1.42805,2.10511 -3.18639,2.15529 -0.63,0.018 -1.23683,-0.0431 -1.61248,-0.1624 z"
       id="path94"
       transform="translate(-28.571,249.51)" />
    <path
       style="fill:#ff0000;stroke-width:0.178571"
       d="m 306.86611,125.11909 c -0.50545,-0.64257 -0.60773,-1.14221 -0.49982,-2.4417 0.1162,-1.39944 0.78249,-2.89759 1.76063,-3.95874 1.28291,-1.3918 2.38941,-1.70745 3.28322,-0.93661 2.05922,1.7759 -0.57272,7.8125 -3.40622,7.8125 -0.61448,0 -0.83694,-0.093 -1.13781,-0.47545 z"
       id="path96"
       transform="translate(-28.571,249.51)" />
    <path
       style="fill:#ff2a2a;stroke-width:0.178571"
       d="m 25.608699,87.564233 c -1.104223,-0.381466 -1.56584,-0.761572 -2.030465,-1.671927 -0.303633,-0.594917 -0.314273,-0.732504 -0.09688,-1.25279 0.321539,-0.769549 1.369976,-1.673565 2.21217,-1.907444 2.095511,-0.581929 4.307695,0.07282 5.160041,1.527239 0.56278,0.960312 0.487319,1.408862 -0.402763,2.394076 -1.074524,1.18937 -2.991845,1.550037 -4.842099,0.910846 z"
       id="path102"
       transform="translate(-28.571,249.51)" />
    <path
       style="fill:#ff2a2a;stroke-width:0.252538"
       d="m 10.862574,124.90788 c -1.6886168,-1.04305 -2.7767046,-3.1906 -2.5917623,-5.11533 0.1410424,-1.46785 0.5264505,-1.99095 1.4668867,-1.99095 1.5042436,0 3.4068606,2.58161 3.6903266,5.00731 0.112504,0.96272 0.03679,1.30768 -0.411366,1.87435 -0.644352,0.81473 -1.118661,0.86419 -2.154085,0.22462 z"
       id="path106"
       transform="translate(-28.571,249.51)" />
    <path
       style="fill:#ff2a2a;stroke-width:0.252538"
       d="m 157.56198,111.38713 c -1.01909,-1.01909 -1.0755,-1.61154 -0.23935,-2.51376 0.55606,-0.6 0.7998,-0.66822 2.38723,-0.66822 2.07913,0 2.91542,0.31747 3.30334,1.254 0.63244,1.52683 -0.79353,2.78661 -3.15421,2.78661 -1.29909,0 -1.52153,-0.0832 -2.29701,-0.85863 z"
       id="path108"
       transform="translate(-28.571,249.51)" />
    <path
       style="fill:#ff2a2a;stroke-width:0.252538"
       d="m 306.97091,125.03962 c -0.61288,-0.67722 -0.55476,-3.04069 0.10953,-4.4539 0.5754,-1.2241 2.50439,-3.16549 3.14529,-3.16549 0.7524,0 1.33722,0.50021 1.63314,1.39685 0.99814,3.02439 -3.08181,8.21831 -4.88796,6.22254 z"
       id="path110"
       transform="translate(-28.571,249.51)" />
    <path
       style="fill:#ff2a2a;stroke-width:0.252538"
       d="m 281.17288,92.497354 c -5.02236,-3.416603 -18.37291,-10.342739 -27.07501,-14.04625 -16.70344,-7.108783 -34.08231,-12.52959 -51.08554,-15.934573 -6.57815,-1.317307 -13.529,-2.422458 -15.23606,-2.422458 -1.15384,0 -1.2076,0.03507 -2.03223,1.325825 -3.02624,4.736856 -5.35366,9.785696 -7.28945,15.812942 -1.10913,3.453382 -1.42357,4.169764 -1.91207,4.356284 -0.32156,0.122776 -1.89679,0.223228 -3.50051,0.223228 h -2.91585 l 0.17665,-0.947018 c 0.54714,-2.933289 4.08159,-12.26862 6.38138,-16.854773 1.73659,-3.463048 5.32942,-9.473578 5.76214,-9.639628 0.82386,-0.316142 14.03392,1.593904 22.10815,3.196621 22.66777,4.499507 45.64848,12.360202 66.26434,22.666129 8.90526,4.451763 17.46552,9.538707 17.23176,10.239985 -0.0954,0.286128 -4.49017,3.463535 -4.73112,3.420571 -0.0695,-0.01238 -1.03541,-0.640982 -2.14658,-1.396885 z"
       id="path112"
       transform="translate(-28.571,249.51)" />
  </g>
  <metadata
     id="metadata5">
    <rdf:RDF>
      <cc:Work>
        <dc:format>image/svg+xml</dc:format>
        <dc:type
           rdf:resource="http://purl.org/dc/dcmitype/StillImage" />
        <cc:license
           rdf:resource="http://creativecommons.org/licenses/publicdomain/" />
        <dc:publisher>
          <cc:Agent
             rdf:about="http://openclipart.org/">
            <dc:title>Openclipart</dc:title>
          </cc:Agent>
        </dc:publisher>
        <dc:title>Jubilee crown blue</dc:title>
        <dc:date>2012-05-15T05:04:01</dc:date>
        <dc:description />
        <dc:source>https://openclipart.org/detail/170034/jubilee-crown-blue-by-mr_johnnyp</dc:source>
        <dc:creator>
          <cc:Agent>
            <dc:title>mr_johnnyp</dc:title>
          </cc:Agent>
        </dc:creator>
        <dc:subject>
          <rdf:Bag>
            <rdf:li>Jubilee</rdf:li>
            <rdf:li>blue</rdf:li>
            <rdf:li>crown</rdf:li>
          </rdf:Bag>
        </dc:subject>
      </cc:Work>
      <cc:License
         rdf:about="http://creativecommons.org/licenses/publicdomain/">
        <cc:permits
           rdf:resource="http://creativecommons.org/ns#Reproduction" />
        <cc:permits
           rdf:resource="http://creativecommons.org/ns#Distribution" />
        <cc:permits
           rdf:resource="http://creativecommons.org/ns#DerivativeWorks" />
      </cc:License>
    </rdf:RDF>
  </metadata>
</svg>
