<?xml version="1.0" encoding="UTF-8" standalone="no"?>
<svg
   xmlns:dc="http://purl.org/dc/elements/1.1/"
   xmlns:cc="http://creativecommons.org/ns#"
   xmlns:rdf="http://www.w3.org/1999/02/22-rdf-syntax-ns#"
   xmlns:svg="http://www.w3.org/2000/svg"
   xmlns="http://www.w3.org/2000/svg"
   xmlns:sodipodi="http://sodipodi.sourceforge.net/DTD/sodipodi-0.dtd"
   xmlns:inkscape="http://www.inkscape.org/namespaces/inkscape"
   version="1.1"
   viewBox="0 0 163.78148 138.68237"
   id="svg2"
   inkscape:version="1.0.2 (e86c870879, 2021-01-15)"
   sodipodi:docname="megaphone.svg">
  <defs
     id="defs16" />
  <sodipodi:namedview
     pagecolor="#ffffff"
     bordercolor="#666666"
     borderopacity="1"
     objecttolerance="10"
     gridtolerance="10"
     guidetolerance="10"
     inkscape:pageopacity="0"
     inkscape:pageshadow="2"
     inkscape:window-width="1366"
     inkscape:window-height="685"
     id="namedview14"
     showgrid="false"
     inkscape:zoom="4"
     inkscape:cx="49.250227"
     inkscape:cy="82.352102"
     inkscape:window-x="0"
     inkscape:window-y="27"
     inkscape:window-maximized="0"
     inkscape:current-layer="g3814"
     fit-margin-top="0"
     fit-margin-left="0"
     fit-margin-right="0"
     fit-margin-bottom="0"
     inkscape:document-rotation="0" />
  <metadata
     id="metadata12">
    <rdf:RDF>
      <cc:Work>
        <dc:format>image/svg+xml</dc:format>
        <dc:type
           rdf:resource="http://purl.org/dc/dcmitype/StillImage" />
        <cc:license
           rdf:resource="http://creativecommons.org/licenses/publicdomain/" />
        <dc:publisher>
          <cc:Agent
             rdf:about="http://openclipart.org/">
            <dc:title>Openclipart</dc:title>
          </cc:Agent>
        </dc:publisher>
        <dc:title />
      </cc:Work>
      <cc:License
         rdf:about="http://creativecommons.org/licenses/publicdomain/">
        <cc:permits
           rdf:resource="http://creativecommons.org/ns#Reproduction" />
        <cc:permits
           rdf:resource="http://creativecommons.org/ns#Distribution" />
        <cc:permits
           rdf:resource="http://creativecommons.org/ns#DerivativeWorks" />
      </cc:License>
    </rdf:RDF>
  </metadata>
  <g
     id="g3880"
     transform="matrix(0.8660254,0.5,-0.5,0.8660254,63.848152,-37.166445)">
    <path
       transform="translate(-50.17092,-17.417624)"
       d="m 156.625,90.639999 c 0,18.156361 -14.07505,32.875001 -31.4375,32.875001 -17.36245,0 -31.4375,-14.71864 -31.4375,-32.875001 0,-18.156361 14.07505,-32.875 31.4375,-32.875 17.36245,0 31.4375,14.718639 31.4375,32.875 z"
       sodipodi:ry="32.875"
       sodipodi:rx="31.4375"
       sodipodi:cy="90.639999"
       sodipodi:cx="125.1875"
       id="path3857"
       style="fill:#ffffff;fill-opacity:1;fill-rule:nonzero;stroke:none"
       sodipodi:type="arc" />
    <path
       sodipodi:nodetypes="cccccc"
       inkscape:connector-curvature="0"
       id="path3859"
       d="m 6.5570402,115.44498 -5.524271,6.01041 1.104854,8.3527 9.0598058,8.44109 9.722718,-2.60746 C 15.590203,129.03396 10.865852,121.38462 6.5570402,115.44498 z"
       style="fill:#ffffff;fill-opacity:1;fill-rule:nonzero;stroke:none" />
    <g
       transform="translate(-31.67092,-17.667624)"
       style="fill:#000000;fill-opacity:1"
       id="g3794">
      <g
         style="fill:#000000;fill-opacity:1"
         transform="matrix(0.99957824,0.02904046,-0.02904046,0.99957824,3.0460011,-2.9313308)"
         id="g3804">
        <g
           style="fill:#000000;fill-opacity:1"
           transform="matrix(0.99791204,-0.06458754,0.06458754,0.99791204,-6.5043209,6.7478786)"
           id="g3814">
          <g
             style="fill:#000000;fill-opacity:1"
             id="g3775"
             transform="matrix(0.46504972,-0.2127359,0.2127359,0.46504972,132.65498,174.89825)">
            <g
               style="fill:#000000;fill-opacity:1"
               id="layer1"
               inkscape:label="Ebene 1"
               transform="translate(-272.0137,-922.08928)">
              <path
                 inkscape:connector-curvature="0"
                 id="path2888"
                 style="fill:#000000;fill-opacity:1"
                 d="m 228.10227,901.15438 c -13.47,-3.3288 -18.736,-10.682 -23.831,-33.279 -4.9056,-21.757 -7.6136,-29.233 -13.484,-37.231 -4.7146,-6.4225 -10.83,-9.2966 -19.78,-9.2966 -11.122,0 -16.917,-4.2111 -20.715,-15.054 -4.069,-11.616 -4.8278,-32.526 -1.5178,-41.821 2.1337,-5.992 7.6482,-12.822 13.595,-16.839 2.9749,-2.0094 13.545,-6.694 25.174,-11.157 22.236,-8.534 23.44773,-10.53538 38.33273,-19.71938 19.287,-11.9 41.292,-28.601 54.969,-41.718 8.7283,-8.3708 9.0989,-8.9126 10.945,-16.001 1.7877,-6.8635 4.2372,-11.389 8.2524,-15.246 2.9642,-2.8474 4.0376,-3.2632 9.2849,-3.5974 9.8038,-0.62426 15.943,3.4574 24.465,16.265 12.188,18.318 24.481,53.523 30.071,86.12 8.3529,48.712 2.1163,96.605 -13.425,103.1 -5.972,2.4953 -9.1324,1.5794 -20.986,-6.0816 -3.1072,-2.0083 -8.5055,-4.7428 -11.996,-6.0767 -19.961,-7.6275 -53.03073,-20.52862 -79.27873,-20.55362 -9.7335,-0.009 -10.534,0.12957 -11.888,2.0622 -2.2909,3.2708 -1.7919,10.571 1.3273,19.417 1.5283,4.3342 2.787,8.8452 2.7971,10.025 0.0235,2.7439 2.054,6.6676 4.6803,9.0444 3.339,3.0218 4.8956,6.8532 4.2286,10.409 -0.52332,2.7895 -0.0662,3.897 3.647,8.8367 4.5637,6.0711 5.1181,8.6811 2.9678,13.973 -1.4042,3.4559 -1.1642,4.839 1.4167,8.1648 2.4232,3.1227 2.1778,5.5758 -0.66612,6.6571 -3.2179,1.2234 -12.854,1.0154 -18.587,-0.40137 z m 78.17901,-202.97115 c -6.68575,24.18528 -0.28346,83.67388 18.39657,106.27624 31.58198,-32.59879 13.32487,-97.03274 -18.39657,-106.27624 z M 142.62707,818.52918 c -18.84,-3.1793 -26.042,-10.782 -26.042,-27.492 0,-9.5952 1.0865,-13.872 5.0009,-19.683 2.6192,-3.8884 4.6791,-5.3761 15.605,-11.27 12.837,-6.9249 16.532,-8.311 13.776,-5.1685 -4.829,5.5075 -7.2276,14.713 -7.2276,27.738 0,15.023 2.8712,24.047 10.357,32.551 l 3.7651,4.2774 -5.4404,-0.10967 c -2.9922,-0.0603 -7.3994,-0.44025 -9.7938,-0.84429 z m -0.2748,-9.0691 c -4.0554,-10.47 -5.4732,-17.974 -5.5489,-29.369 -0.0775,-11.652 -0.92331,-14.376 -2.6597,-8.5642 -0.44967,1.505 -0.85912,6.9321 -0.90989,12.06 -0.0807,8.1433 0.2876,10.475 2.9084,18.414 2.5041,7.5863 3.3185,9.0906 4.9214,9.0906 1.4484,0 1.7653,-0.4012 1.2887,-1.6316 z m -12.814,-8.8576 c -2.5354,-7.8297 -2.7556,-9.4969 -2.3893,-18.092 0.33548,-7.8715 0.18217,-9.3824 -0.90951,-8.9635 -2.1448,0.82304 -3.0362,4.5702 -3.0128,12.664 0.017,5.8589 0.5354,8.8795 2.232,13.005 5.1212,12.453 7.9778,13.424 4.0796,1.3859 z"
                 sodipodi:nodetypes="cscscccssscsccccccccssscscccccccccscscsccscccscscscccscsscc" />
            </g>
          </g>
          <g
             style="fill:#000000;fill-opacity:1"
             transform="matrix(0.28213505,-0.05262116,0.22926558,0.50849215,154.51475,164.79177)"
             id="g3784">
            <g
               style="fill:#000000;fill-opacity:1"
               transform="translate(-272.0137,-922.08928)"
               inkscape:label="Ebene 1"
               id="g3790">
              <path
                 sodipodi:nodetypes="ccccccccc"
                 d="m 387.42112,632.99962 c 145.61075,49.71718 92.49359,175.94215 42.0333,207.7495 52.51245,-81.67747 39.68337,-151.33824 -42.0333,-207.7495 z m -19.2784,27.2295 c 84.15064,14.9991 101.29282,122.55358 34.2834,166.5311 45.85414,-61.61224 26.57327,-132.52989 -34.2834,-166.5311 z m -17.9794,23.6067 c 67.99783,7.97247 77.28825,96.24746 26.8711,133.596 32.02493,-51.15309 19.46508,-107.30939 -26.8711,-133.596 z"
                 style="fill:#000000;fill-opacity:1"
                 id="path3792"
                 inkscape:connector-curvature="0" />
            </g>
          </g>
          <path
             style="fill:#d40000;stroke-width:0.176777"
             d="m 132.53838,100.87969 c -0.004,-0.0612 0.436,-1.329909 0.97666,-2.819285 8.42726,-23.214897 7.43384,-52.275952 -2.40049,-70.222309 -0.64918,-1.184672 -1.15411,-2.185653 -1.12207,-2.224404 0.13765,-0.166455 1.68013,1.066826 3.07283,2.456864 5.46728,5.456813 8.94232,15.312607 9.91039,28.107571 0.26917,3.557593 0.11682,12.678181 -0.26576,15.909903 -0.80067,6.763404 -2.15256,12.837393 -3.92704,17.644017 -0.9617,2.604995 -2.92204,6.570273 -4.19431,8.484024 -1.12791,1.696602 -2.03792,2.878879 -2.05021,2.663619 z"
             id="path18"
             transform="rotate(-27.960959,154.67427,47.398794)" />
          <path
             style="fill:#d40000;stroke-width:0.176777"
             d="m 139.07276,108.45079 c 0,-0.0408 0.32789,-0.78128 0.72864,-1.64561 1.0411,-2.24544 2.44457,-5.90701 3.48671,-9.096635 5.43588,-16.637289 6.62293,-36.228229 3.2769,-54.081563 -1.21819,-6.499874 -2.84523,-12.20731 -5.14023,-18.031223 -1.18926,-3.017924 -3.46218,-7.731383 -4.88029,-10.120466 -0.44727,-0.75351 -0.74536,-1.370019 -0.66243,-1.370019 0.26733,0 3.7188,3.383609 4.76631,4.672595 10.62594,13.075462 14.95301,40.123261 10.2536,64.093539 -1.56765,7.996123 -4.44887,15.596384 -7.89797,20.833792 -1.29835,1.97153 -3.93124,5.14982 -3.93124,4.74559 z"
             id="path20"
             transform="rotate(-27.960959,154.67427,47.398794)" />
          <path
             style="fill:#d40000;stroke-width:0.176777"
             d="m 145.96705,118.51498 c 0,-0.0723 0.27044,-0.78478 0.60097,-1.58327 5.83011,-14.08403 9.53969,-29.270033 10.82471,-44.31335 0.56667,-6.633876 0.40524,-16.495521 -0.3892,-23.776465 -1.64143,-15.04343 -6.30522,-30.612169 -13.50202,-45.0726168 -0.77273,-1.5526423 -1.38461,-2.84334322 -1.35973,-2.86822424 0.0249,-0.024881 0.68367,0.68861614 1.46397,1.58554914 4.43168,5.0941021 8.35736,11.0624719 11.31673,17.2053109 4.92734,10.22781 7.72005,21.320995 8.56235,34.01134 0.25859,3.895891 0.10461,13.566964 -0.27582,17.324116 -1.85805,18.350278 -7.64177,35.72436 -15.03562,45.16645 -1.10554,1.41179 -2.20634,2.56988 -2.20634,2.32116 z"
             id="path22"
             transform="rotate(-27.960959,154.67427,47.398794)" />
          <path
             style="fill:#006680;stroke-width:0.25"
             d="m 57.665426,138.34478 c -5.831447,-0.74001 -9.774345,-3.03955 -11.805297,-6.88498 -1.10926,-2.10028 -2.161203,-5.65894 -2.942625,-9.9547 -2.287985,-12.5779 -2.943781,-15.08691 -4.963551,-18.99002 -1.586092,-3.065045 -3.433813,-5.06111 -5.659219,-6.11356 -1.48804,-0.703733 -2.490488,-0.924945 -6.829407,-1.507063 -4.65488,-0.624505 -7.292995,-3.236155 -8.657269,-8.570415 -1.524886,-5.962247 -1.24871,-16.294197 0.549814,-20.56894 1.138849,-2.706825 4.266906,-6.325442 6.899529,-7.981552 1.633633,-1.027675 5.571067,-2.537565 13.908805,-5.333618 9.010343,-3.02161 10.575423,-3.694052 17.71492,-7.611295 12.403105,-6.80524 22.440335,-13.378427 30.3554,-19.879169 5.391918,-4.428449 6.277665,-5.509763 7.429075,-9.069366 1.165008,-3.60164 3.719023,-7.1487313 5.97774,-8.3020615 0.843099,-0.4304971 1.360079,-0.4870328 3.749999,-0.4100936 2.44207,0.078618 2.94618,0.1746009 4.23443,0.8062406 4.68968,2.2993895 9.51547,10.5210425 13.62465,23.2122205 5.22074,16.124197 7.802,34.276677 7.0492,49.572914 -0.61343,12.464423 -2.56299,21.587218 -5.87324,27.483238 -1.8372,3.27234 -3.9317,4.85051 -6.72887,5.07013 -1.3914,0.10924 -1.69094,0.0384 -3.22049,-0.76198 -0.92752,-0.48533 -2.7933,-1.66269 -4.14619,-2.61636 -3.64149,-2.56695 -5.36163,-3.50057 -11.292404,-6.12909 -7.721727,-3.42228 -11.690177,-4.993438 -17.5,-6.928488 -7.994905,-2.662825 -12.19943,-3.568467 -18.762782,-4.041445 -4.43534,-0.319625 -4.973618,-0.20048 -5.849605,1.294775 -0.43774,0.7472 -0.50917,1.27666 -0.48905,3.625 0.01925,2.247598 0.168512,3.292928 0.816997,5.721838 0.43639,1.63452 0.953525,3.96164 1.149188,5.17139 0.396917,2.45409 0.77635,3.33934 2.135252,4.98177 1.64026,1.98249 1.866268,2.61429 1.878048,5.25 l 0.01062,2.375 1.597845,2.56544 c 1.996557,3.20561 2.184167,4.32515 1.140385,6.80506 -0.787565,1.87117 -0.733568,2.81593 0.245497,4.2954 2.038733,3.08073 0.196663,4.17807 -5.74739,3.42378 z M 109.32806,87.530595 c 6.71674,-8.871375 8.31822,-22.71099 4.04774,-34.97976 -2.12119,-6.09401 -5.79406,-11.482748 -9.60938,-14.098605 -1.23552,-0.8471 -3.57706,-2.072128 -3.960699,-2.072128 -0.701887,0 -1.89015,6.750988 -2.284382,12.978488 -0.316448,4.998782 -0.0394,12.534072 0.66584,18.110017 1.169545,9.246905 3.745721,17.905668 6.696361,22.50709 l 0.94302,1.470598 1.00327,-0.970598 c 0.55181,-0.533827 1.67601,-1.859122 2.49823,-2.945102 z"
             id="path50"
             transform="rotate(-27.960959,154.67427,47.398794)" />
          <path
             style="fill:#006680;stroke-width:0.25"
             d="M 15.665426,93.345797 C 11.796155,92.85704 7.4989091,91.457707 5.0588594,89.89193 1.2068735,87.420117 -0.34147568,83.260358 0.26782059,77.020433 0.60821004,73.534437 1.2281348,71.438363 2.4958526,69.48707 c 1.6133518,-2.4833 2.9217663,-3.465058 7.6375614,-5.73078 5.013761,-2.408881 8.329848,-3.786686 8.559951,-3.556582 0.08998,0.08998 -0.204997,0.583412 -0.655506,1.096513 -2.744988,3.126369 -4.187402,9.529435 -3.928407,17.438718 0.187228,5.717647 1.200607,8.832553 4.134622,12.708923 0.673591,0.889938 1.303719,1.745905 1.400286,1.902153 0.20768,0.336035 -1.317647,0.33595 -3.978934,-2.18e-4 z m -2.944139,-4.903195 c -0.06924,-0.378125 -0.410694,-1.76406 -0.758791,-3.079855 -0.953751,-3.605153 -1.193723,-5.888778 -1.167236,-11.107645 0.03646,-7.183156 0.03933,-7.125 -0.352689,-7.125 -0.6010489,0 -1.1509324,1.920828 -1.5626954,5.458736 -0.5596067,4.808196 -0.367531,7.809526 0.7584895,11.851982 1.1524069,4.137185 1.4393129,4.689282 2.4368559,4.689282 0.705984,0 0.761196,-0.05875 0.646066,-0.6875 z m -5.6132331,-0.87814 c 0.157351,-0.41005 -0.082322,-1.844312 -0.9483583,-5.675212 -0.6991175,-3.092536 -0.702191,-3.143984 -0.410735,-6.875 0.424102,-5.429056 0.4122023,-5.686465 -0.2583755,-5.589036 -1.268157,0.184254 -1.9564885,2.946913 -1.977706,7.93764 -0.011235,2.642612 0.066699,3.185357 0.750437,5.226179 0.8371385,2.498692 2.158612,5.291069 2.5039615,5.291069 0.1208098,0 0.274159,-0.142037 0.3407763,-0.31564 z"
             id="path52"
             transform="rotate(-27.960959,154.67427,47.398794)" />
          <path
             style="fill:#d40000;stroke-width:0.125"
             d="m 11.319619,88.660226 c -0.484703,-0.523003 -1.230488,-2.86986 -2.1436268,-6.745624 -0.8693585,-3.68994 -0.2485409,-12.469119 1.0184948,-14.40286 0.199604,-0.304635 0.219268,-0.309717 0.342988,-0.08864 0.205599,0.367384 0.247086,2.46969 0.114536,5.804001 -0.224525,5.647991 0.168872,9.162071 1.54074,13.762888 0.570894,1.9146 0.568212,1.987112 -0.07349,1.987112 -0.380999,0 -0.578502,-0.07827 -0.799639,-0.316876 z"
             id="path66"
             transform="rotate(-27.960959,154.67427,47.398794)" />
          <path
             style="fill:#4d4d4d;stroke-width:0.125"
             d="M 6.5030168,87.356021 C 5.6992901,86.22729 4.1719488,82.216408 3.8020354,80.263096 3.4152473,78.220676 3.7012439,73.186288 4.3222632,71.105546 4.5377686,70.38349 5.3508707,69.406858 5.6532599,69.506862 c 0.2624098,0.08678 0.2549049,1.670767 -0.022041,4.652063 -0.3948021,4.250002 -0.3511809,4.996506 0.4922111,8.423382 1.0271403,4.173484 1.1622704,5.872891 0.3795868,4.773714 z"
             id="path68"
             transform="rotate(-27.960959,154.67427,47.398794)" />
        </g>
      </g>
    </g>
  </g>
</svg>
