<?xml version="1.0" encoding="UTF-8" standalone="no"?>
<svg
   xmlns:dc="http://purl.org/dc/elements/1.1/"
   xmlns:cc="http://creativecommons.org/ns#"
   xmlns:rdf="http://www.w3.org/1999/02/22-rdf-syntax-ns#"
   xmlns:svg="http://www.w3.org/2000/svg"
   xmlns="http://www.w3.org/2000/svg"
   xmlns:sodipodi="http://sodipodi.sourceforge.net/DTD/sodipodi-0.dtd"
   xmlns:inkscape="http://www.inkscape.org/namespaces/inkscape"
   id="svg2932"
   viewBox="0 0 64 64"
   version="1.1"
   inkscape:version="1.0.2 (e86c870879, 2021-01-15)"
   sodipodi:docname="single_book.svg">
  <defs
     id="defs18" />
  <sodipodi:namedview
     pagecolor="#ffffff"
     bordercolor="#666666"
     borderopacity="1"
     objecttolerance="10"
     gridtolerance="10"
     guidetolerance="10"
     inkscape:pageopacity="0"
     inkscape:pageshadow="2"
     inkscape:window-width="1366"
     inkscape:window-height="689"
     id="namedview16"
     showgrid="false"
     inkscape:zoom="5.2149125"
     inkscape:cx="31.591657"
     inkscape:cy="26.927805"
     inkscape:window-x="0"
     inkscape:window-y="27"
     inkscape:window-maximized="1"
     inkscape:current-layer="svg2932"
     inkscape:document-rotation="0" />
  <g
     id="g4201"
     transform="translate(3.3994769,-0.20488004)">
    <g
       transform="matrix(1.151959,0,0,1.151959,-10.522781,0.52600754)"
       id="g4004">
      <path
         style="fill:#505050"
         inkscape:connector-curvature="0"
         d="m 18,54 31,0 0,-43 -31,0 0,43 z"
         id="path2948" />
      <path
         style="fill:#008a00"
         inkscape:connector-curvature="0"
         d="m 14,6 0,43 c 0,3 3,5 5,5 L 54,54 54,1 19,1 c -3,0 -5,2 -5,5 z"
         id="path3978" />
      <path
         style="fill:#dddddd"
         inkscape:connector-curvature="0"
         d="m 16,48 c 0,2 1,4 4,4 l 32,0 0,-8 -32,0 c -3,0 -4,2 -4,4 z"
         id="path3980" />
      <path
         style="fill:#60a917"
         inkscape:connector-curvature="0"
         d="M 23,44 54,44 54,1 23,1 23,44 Z"
         id="path3982" />
    </g>
    <path
       inkscape:connector-curvature="0"
       id="path3989"
       d="m 11.363333,8.5698526 c -2.3274671,0 -4.2578808,0.6861125 -5.8452918,1.7526874 l 0,12.669299 c 1.6640647,-1.716542 3.6342947,-2.902396 5.8452918,-2.902396 l 40.318565,0 0,-11.5195904 -40.318565,0 z"
       style="fill:#7a3b3f" />
  </g>
  <metadata
     id="metadata14">
    <rdf:RDF>
      <cc:Work>
        <dc:format>image/svg+xml</dc:format>
        <dc:type
           rdf:resource="http://purl.org/dc/dcmitype/StillImage" />
        <cc:license
           rdf:resource="http://creativecommons.org/publicdomain/zero/1.0/" />
        <dc:publisher>
          <cc:Agent
             rdf:about="http://openclipart.org/">
            <dc:title>Openclipart</dc:title>
          </cc:Agent>
        </dc:publisher>
        <dc:title></dc:title>
        <dc:date>2013-10-12T15:15:12</dc:date>
        <dc:description>book pack</dc:description>
        <dc:source>https://openclipart.org/detail/184800/books-by-crisg-184800</dc:source>
        <dc:creator>
          <cc:Agent>
            <dc:title>crisg</dc:title>
          </cc:Agent>
        </dc:creator>
        <dc:subject>
          <rdf:Bag>
            <rdf:li>book</rdf:li>
            <rdf:li>book folder</rdf:li>
            <rdf:li>book library</rdf:li>
            <rdf:li>book pack</rdf:li>
            <rdf:li>icon</rdf:li>
            <rdf:li>library</rdf:li>
            <rdf:li>libreria</rdf:li>
            <rdf:li>libri</rdf:li>
            <rdf:li>my books</rdf:li>
          </rdf:Bag>
        </dc:subject>
      </cc:Work>
      <cc:License
         rdf:about="http://creativecommons.org/publicdomain/zero/1.0/">
        <cc:permits
           rdf:resource="http://creativecommons.org/ns#Reproduction" />
        <cc:permits
           rdf:resource="http://creativecommons.org/ns#Distribution" />
        <cc:permits
           rdf:resource="http://creativecommons.org/ns#DerivativeWorks" />
      </cc:License>
    </rdf:RDF>
  </metadata>
  <path
     style="fill:#00ccff;stroke-width:0.191758"
     d="M 19.510918,35.461026 V 20.024525 h 17.737594 17.737594 v 15.436501 15.4365 H 37.248512 19.510918 Z"
     id="path13" />
  <path
     style="fill:#00ccff;stroke-width:0.191758"
     d="M 19.510918,4.875661 V 1.4240211 H 37.248512 54.986106 V 4.875661 8.3273009 H 37.248512 19.510918 Z"
     id="path15" />
  <path
     style="fill:#006680;stroke-width:0.191758"
     d="m 12.703517,61.853426 c -1.43109,-0.683191 -2.499733,-1.71459 -3.0900648,-2.982372 L 9.1597446,57.896685 9.1578714,40.23035 9.1559981,22.564015 10.205426,21.754388 c 0.577185,-0.445296 1.547959,-1.014633 2.157275,-1.265194 0.997749,-0.410292 1.398465,-0.456018 4.032153,-0.460118 l 2.924306,-0.0046 v 15.417243 15.417244 l -2.450539,0.0672 c -2.176144,0.05967 -2.557075,0.12205 -3.401989,0.557091 -1.435061,0.738902 -2.057657,1.861009 -2.155336,3.884573 -0.06889,1.427183 -0.02645,1.665957 0.46646,2.624491 0.576247,1.120589 1.374929,1.78474 2.533145,2.106461 0.443051,0.123067 7.535902,0.193079 19.629789,0.193762 l 18.93608,0.0011 V 55.69147 51.089284 h 1.054668 1.054668 v 5.656854 5.656854 l -20.566021,-1.51e-4 -20.566022,-1.52e-4 z"
     id="path17" />
  <path
     style="fill:#006680;stroke-width:0.191758"
     d="M 9.1834301,7.6218789 C 9.2473924,5.5093483 9.2923123,5.2832688 9.8433779,4.3003877 10.485977,3.1542483 11.741869,2.1513105 12.957153,1.8137707 13.344987,1.7060516 14.935098,1.6174365 16.490733,1.6168483 l 2.828427,-0.00107 v 3.355761 3.355761 h -3.027836 c -3.290639,0 -4.50885,0.209587 -6.20036,1.0667397 L 9.1147962,9.8887024 Z"
     id="path19" />
</svg>
